<?xml version="1.0" encoding="utf-8" standalone="no"?>
<!DOCTYPE svg PUBLIC "-//W3C//DTD SVG 1.1//EN"
  "http://www.w3.org/Graphics/SVG/1.1/DTD/svg11.dtd">
<svg xmlns:xlink="http://www.w3.org/1999/xlink" width="432pt" height="432pt" viewBox="0 0 432 432" xmlns="http://www.w3.org/2000/svg" version="1.1">
 <metadata>
  <rdf:RDF xmlns:dc="http://purl.org/dc/elements/1.1/" xmlns:cc="http://creativecommons.org/ns#" xmlns:rdf="http://www.w3.org/1999/02/22-rdf-syntax-ns#">
   <cc:Work>
    <dc:type rdf:resource="http://purl.org/dc/dcmitype/StillImage"/>
    <dc:date>2026-02-17T16:55:50.605715</dc:date>
    <dc:format>image/svg+xml</dc:format>
    <dc:creator>
     <cc:Agent>
      <dc:title>Matplotlib v3.10.3, https://matplotlib.org/</dc:title>
     </cc:Agent>
    </dc:creator>
   </cc:Work>
  </rdf:RDF>
 </metadata>
 <defs>
  <style type="text/css">*{stroke-linejoin: round; stroke-linecap: butt}</style>
 </defs>
 <g id="figure_1">
  <g id="patch_1">
   <path d="M 0 432 
L 432 432 
L 432 0 
L 0 0 
z
" style="fill: #ffffff"/>
  </g>
  <g id="axes_1">
   <g id="patch_2">
    <path d="M 47.855 404.12 
L 421.2 404.12 
L 421.2 26.16 
L 47.855 26.16 
z
" style="fill: #ffffff"/>
   </g>
   <g id="FillBetweenPolyCollection_1">
    <defs>
     <path id="mc1874e80d8" d="M 141.279163 -45.06 
L 141.103337 -45.06 
L 138.871773 -48.530707 
L 128.883493 -52.001414 
L 114.498123 -55.472121 
L 100.954534 -58.942828 
L 89.657339 -62.413535 
L 80.754094 -65.884242 
L 74.048367 -69.354949 
L 69.756536 -72.825657 
L 67.320182 -76.296364 
L 66.52225 -79.767071 
L 67.107494 -83.237778 
L 68.802037 -86.708485 
L 71.49426 -90.179192 
L 74.587154 -93.649899 
L 78.0123 -97.120606 
L 81.59409 -100.591313 
L 85.355177 -104.06202 
L 88.990588 -107.532727 
L 92.834162 -111.003434 
L 96.453332 -114.474141 
L 99.776935 -117.944848 
L 103.254563 -121.415556 
L 106.666944 -124.886263 
L 109.632234 -128.35697 
L 112.503443 -131.827677 
L 115.393369 -135.298384 
L 118.078295 -138.769091 
L 120.51861 -142.239798 
L 122.717555 -145.710505 
L 124.839547 -149.181212 
L 126.651679 -152.651919 
L 128.237646 -156.122626 
L 129.547128 -159.593333 
L 130.724572 -163.06404 
L 131.66387 -166.534747 
L 132.48766 -170.005455 
L 133.243609 -173.476162 
L 133.768687 -176.946869 
L 134.388064 -180.417576 
L 134.859657 -183.888283 
L 135.258486 -187.35899 
L 135.54862 -190.829697 
L 135.816374 -194.300404 
L 136.067208 -197.771111 
L 136.260324 -201.241818 
L 136.461638 -204.712525 
L 136.667636 -208.183232 
L 136.826462 -211.653939 
L 137.008558 -215.124646 
L 137.190035 -218.595354 
L 137.36491 -222.066061 
L 137.572241 -225.536768 
L 137.771022 -229.007475 
L 138.021506 -232.478182 
L 138.230469 -235.948889 
L 138.471428 -239.419596 
L 138.764023 -242.890303 
L 139.017632 -246.36101 
L 139.167339 -249.831717 
L 139.355737 -253.302424 
L 139.535015 -256.773131 
L 139.676966 -260.243838 
L 139.849429 -263.714545 
L 140.008887 -267.185253 
L 140.147291 -270.65596 
L 140.33769 -274.126667 
L 140.470321 -277.597374 
L 140.580417 -281.068081 
L 140.703046 -284.538788 
L 140.790168 -288.009495 
L 140.879202 -291.480202 
L 140.951091 -294.950909 
L 141.011053 -298.421616 
L 141.047672 -301.892323 
L 141.081111 -305.36303 
L 141.106082 -308.833737 
L 141.120243 -312.304444 
L 141.136781 -315.775152 
L 141.147642 -319.245859 
L 141.158774 -322.716566 
L 141.166386 -326.187273 
L 141.169602 -329.65798 
L 141.177251 -333.128687 
L 141.182117 -336.599394 
L 141.18404 -340.070101 
L 141.187423 -343.540808 
L 141.188373 -347.011515 
L 141.186991 -350.482222 
L 141.187758 -353.952929 
L 141.189166 -357.423636 
L 141.189748 -360.894343 
L 141.189648 -364.365051 
L 141.190121 -367.835758 
L 141.190097 -371.306465 
L 141.19002 -374.777172 
L 141.189522 -378.247879 
L 141.190042 -381.718586 
L 141.190317 -385.189293 
L 141.191134 -388.66 
L 141.191366 -388.66 
L 141.191366 -388.66 
L 141.192183 -385.189293 
L 141.192458 -381.718586 
L 141.192978 -378.247879 
L 141.19248 -374.777172 
L 141.192403 -371.306465 
L 141.192379 -367.835758 
L 141.192852 -364.365051 
L 141.192752 -360.894343 
L 141.193334 -357.423636 
L 141.194742 -353.952929 
L 141.195509 -350.482222 
L 141.194127 -347.011515 
L 141.195077 -343.540808 
L 141.19846 -340.070101 
L 141.200383 -336.599394 
L 141.205249 -333.128687 
L 141.212898 -329.65798 
L 141.216114 -326.187273 
L 141.223726 -322.716566 
L 141.234858 -319.245859 
L 141.245719 -315.775152 
L 141.262257 -312.304444 
L 141.276418 -308.833737 
L 141.301389 -305.36303 
L 141.334828 -301.892323 
L 141.371447 -298.421616 
L 141.431409 -294.950909 
L 141.503298 -291.480202 
L 141.592332 -288.009495 
L 141.679454 -284.538788 
L 141.802083 -281.068081 
L 141.912179 -277.597374 
L 142.04481 -274.126667 
L 142.235209 -270.65596 
L 142.373613 -267.185253 
L 142.533071 -263.714545 
L 142.705534 -260.243838 
L 142.847485 -256.773131 
L 143.026763 -253.302424 
L 143.215161 -249.831717 
L 143.364868 -246.36101 
L 143.618477 -242.890303 
L 143.911072 -239.419596 
L 144.152031 -235.948889 
L 144.360994 -232.478182 
L 144.611478 -229.007475 
L 144.810259 -225.536768 
L 145.01759 -222.066061 
L 145.192465 -218.595354 
L 145.373942 -215.124646 
L 145.556038 -211.653939 
L 145.714864 -208.183232 
L 145.920862 -204.712525 
L 146.122176 -201.241818 
L 146.315292 -197.771111 
L 146.566126 -194.300404 
L 146.83388 -190.829697 
L 147.124014 -187.35899 
L 147.522843 -183.888283 
L 147.994436 -180.417576 
L 148.613813 -176.946869 
L 149.138891 -173.476162 
L 149.89484 -170.005455 
L 150.71863 -166.534747 
L 151.657928 -163.06404 
L 152.835372 -159.593333 
L 154.144854 -156.122626 
L 155.730821 -152.651919 
L 157.542953 -149.181212 
L 159.664945 -145.710505 
L 161.86389 -142.239798 
L 164.304205 -138.769091 
L 166.989131 -135.298384 
L 169.879057 -131.827677 
L 172.750266 -128.35697 
L 175.715556 -124.886263 
L 179.127937 -121.415556 
L 182.605565 -117.944848 
L 185.929168 -114.474141 
L 189.548338 -111.003434 
L 193.391912 -107.532727 
L 197.027323 -104.06202 
L 200.78841 -100.591313 
L 204.3702 -97.120606 
L 207.795346 -93.649899 
L 210.88824 -90.179192 
L 213.580463 -86.708485 
L 215.275006 -83.237778 
L 215.86025 -79.767071 
L 215.062318 -76.296364 
L 212.625964 -72.825657 
L 208.334133 -69.354949 
L 201.628406 -65.884242 
L 192.725161 -62.413535 
L 181.427966 -58.942828 
L 167.884377 -55.472121 
L 153.499007 -52.001414 
L 143.510727 -48.530707 
L 141.279163 -45.06 
z
" style="stroke: #3f3f3f; stroke-width: 1.25"/>
    </defs>
    <g clip-path="url(#pb4ecdf123c)">
     <use xlink:href="#mc1874e80d8" x="0" y="432" style="fill: #e1812c; stroke: #3f3f3f; stroke-width: 1.25"/>
    </g>
   </g>
   <g id="FillBetweenPolyCollection_2">
    <defs>
     <path id="mcf0de1ac72" d="M 327.950147 -45.591187 
L 327.777353 -45.591187 
L 326.040011 -48.421455 
L 318.250128 -51.251723 
L 306.129971 -54.081991 
L 293.90787 -56.912259 
L 282.710634 -59.742527 
L 273.406568 -62.572795 
L 266.172577 -65.403063 
L 260.625172 -68.233331 
L 256.596814 -71.063599 
L 254.180683 -73.893867 
L 253.19475 -76.724135 
L 253.302453 -79.554403 
L 254.222653 -82.384671 
L 255.70094 -85.214939 
L 258.134633 -88.045207 
L 260.82805 -90.875474 
L 263.888897 -93.705742 
L 267.009147 -96.53601 
L 270.68655 -99.366278 
L 274.355462 -102.196546 
L 277.751914 -105.026814 
L 281.098414 -107.857082 
L 284.36474 -110.68735 
L 287.641005 -113.517618 
L 290.833762 -116.347886 
L 293.775073 -119.178154 
L 296.528866 -122.008422 
L 298.829382 -124.83869 
L 301.28228 -127.668958 
L 303.770999 -130.499226 
L 305.922471 -133.329494 
L 307.93563 -136.159762 
L 309.831807 -138.99003 
L 311.424249 -141.820298 
L 313.194852 -144.650566 
L 314.650027 -147.480834 
L 316.006023 -150.311101 
L 317.472164 -153.141369 
L 318.588175 -155.971637 
L 319.528392 -158.801905 
L 320.535866 -161.632173 
L 321.502489 -164.462441 
L 322.268123 -167.292709 
L 322.865569 -170.122977 
L 323.479222 -172.953245 
L 324.056214 -175.783513 
L 324.613434 -178.613781 
L 325.029238 -181.444049 
L 325.292994 -184.274317 
L 325.658065 -187.104585 
L 325.96278 -189.934853 
L 326.224313 -192.765121 
L 326.449724 -195.595389 
L 326.619728 -198.425657 
L 326.762388 -201.255925 
L 326.929096 -204.086193 
L 327.101885 -206.91646 
L 327.221264 -209.746728 
L 327.276692 -212.576996 
L 327.353401 -215.407264 
L 327.435035 -218.237532 
L 327.494635 -221.0678 
L 327.514794 -223.898068 
L 327.575883 -226.728336 
L 327.623948 -229.558604 
L 327.654897 -232.388872 
L 327.678689 -235.21914 
L 327.696648 -238.049408 
L 327.699988 -240.879676 
L 327.72071 -243.709944 
L 327.750796 -246.540212 
L 327.768506 -249.37048 
L 327.757462 -252.200748 
L 327.771024 -255.031016 
L 327.786203 -257.861284 
L 327.79849 -260.691552 
L 327.817031 -263.521819 
L 327.825405 -266.352087 
L 327.826162 -269.182355 
L 327.826767 -272.012623 
L 327.835247 -274.842891 
L 327.840939 -277.673159 
L 327.838769 -280.503427 
L 327.842919 -283.333695 
L 327.841134 -286.163963 
L 327.842742 -288.994231 
L 327.854213 -291.824499 
L 327.856903 -294.654767 
L 327.854455 -297.485035 
L 327.856869 -300.315303 
L 327.85983 -303.145571 
L 327.858134 -305.975839 
L 327.86038 -308.806107 
L 327.861902 -311.636375 
L 327.859681 -314.466643 
L 327.861482 -317.296911 
L 327.862647 -320.127178 
L 327.862696 -322.957446 
L 327.863587 -325.787714 
L 327.863913 -325.787714 
L 327.863913 -325.787714 
L 327.864804 -322.957446 
L 327.864853 -320.127178 
L 327.866018 -317.296911 
L 327.867819 -314.466643 
L 327.865598 -311.636375 
L 327.86712 -308.806107 
L 327.869366 -305.975839 
L 327.86767 -303.145571 
L 327.870631 -300.315303 
L 327.873045 -297.485035 
L 327.870597 -294.654767 
L 327.873287 -291.824499 
L 327.884758 -288.994231 
L 327.886366 -286.163963 
L 327.884581 -283.333695 
L 327.888731 -280.503427 
L 327.886561 -277.673159 
L 327.892253 -274.842891 
L 327.900733 -272.012623 
L 327.901338 -269.182355 
L 327.902095 -266.352087 
L 327.910469 -263.521819 
L 327.92901 -260.691552 
L 327.941297 -257.861284 
L 327.956476 -255.031016 
L 327.970038 -252.200748 
L 327.958994 -249.37048 
L 327.976704 -246.540212 
L 328.00679 -243.709944 
L 328.027512 -240.879676 
L 328.030852 -238.049408 
L 328.048811 -235.21914 
L 328.072603 -232.388872 
L 328.103552 -229.558604 
L 328.151617 -226.728336 
L 328.212706 -223.898068 
L 328.232865 -221.0678 
L 328.292465 -218.237532 
L 328.374099 -215.407264 
L 328.450808 -212.576996 
L 328.506236 -209.746728 
L 328.625615 -206.91646 
L 328.798404 -204.086193 
L 328.965112 -201.255925 
L 329.107772 -198.425657 
L 329.277776 -195.595389 
L 329.503187 -192.765121 
L 329.76472 -189.934853 
L 330.069435 -187.104585 
L 330.434506 -184.274317 
L 330.698262 -181.444049 
L 331.114066 -178.613781 
L 331.671286 -175.783513 
L 332.248278 -172.953245 
L 332.861931 -170.122977 
L 333.459377 -167.292709 
L 334.225011 -164.462441 
L 335.191634 -161.632173 
L 336.199108 -158.801905 
L 337.139325 -155.971637 
L 338.255336 -153.141369 
L 339.721477 -150.311101 
L 341.077473 -147.480834 
L 342.532648 -144.650566 
L 344.303251 -141.820298 
L 345.895693 -138.99003 
L 347.79187 -136.159762 
L 349.805029 -133.329494 
L 351.956501 -130.499226 
L 354.44522 -127.668958 
L 356.898118 -124.83869 
L 359.198634 -122.008422 
L 361.952427 -119.178154 
L 364.893738 -116.347886 
L 368.086495 -113.517618 
L 371.36276 -110.68735 
L 374.629086 -107.857082 
L 377.975586 -105.026814 
L 381.372038 -102.196546 
L 385.04095 -99.366278 
L 388.718353 -96.53601 
L 391.838603 -93.705742 
L 394.89945 -90.875474 
L 397.592867 -88.045207 
L 400.02656 -85.214939 
L 401.504847 -82.384671 
L 402.425047 -79.554403 
L 402.53275 -76.724135 
L 401.546817 -73.893867 
L 399.130686 -71.063599 
L 395.102328 -68.233331 
L 389.554923 -65.403063 
L 382.320932 -62.572795 
L 373.016866 -59.742527 
L 361.81963 -56.912259 
L 349.597529 -54.081991 
L 337.477372 -51.251723 
L 329.687489 -48.421455 
L 327.950147 -45.591187 
z
" style="stroke: #3f3f3f; stroke-width: 1.25"/>
    </defs>
    <g clip-path="url(#pb4ecdf123c)">
     <use xlink:href="#mcf0de1ac72" x="0" y="432" style="fill: #3274a1; stroke: #3f3f3f; stroke-width: 1.25"/>
    </g>
   </g>
   <g id="matplotlib.axis_1">
    <g id="xtick_1">
     <g id="line2d_1">
      <defs>
       <path id="m99a3cfd248" d="M 0 0 
L 0 3.5 
" style="stroke: #000000; stroke-width: 0.8"/>
      </defs>
      <g>
       <use xlink:href="#m99a3cfd248" x="141.19125" y="404.12" style="stroke: #000000; stroke-width: 0.8"/>
      </g>
     </g>
     <g id="text_1">
      <!-- inter -->
      <g transform="translate(129.54125 418.718437) scale(0.1 -0.1)">
       <defs>
        <path id="DejaVuSans-69" d="M 603 3500 
L 1178 3500 
L 1178 0 
L 603 0 
L 603 3500 
z
M 603 4863 
L 1178 4863 
L 1178 4134 
L 603 4134 
L 603 4863 
z
" transform="scale(0.015625)"/>
        <path id="DejaVuSans-6e" d="M 3513 2113 
L 3513 0 
L 2938 0 
L 2938 2094 
Q 2938 2591 2744 2837 
Q 2550 3084 2163 3084 
Q 1697 3084 1428 2787 
Q 1159 2491 1159 1978 
L 1159 0 
L 581 0 
L 581 3500 
L 1159 3500 
L 1159 2956 
Q 1366 3272 1645 3428 
Q 1925 3584 2291 3584 
Q 2894 3584 3203 3211 
Q 3513 2838 3513 2113 
z
" transform="scale(0.015625)"/>
        <path id="DejaVuSans-74" d="M 1172 4494 
L 1172 3500 
L 2356 3500 
L 2356 3053 
L 1172 3053 
L 1172 1153 
Q 1172 725 1289 603 
Q 1406 481 1766 481 
L 2356 481 
L 2356 0 
L 1766 0 
Q 1100 0 847 248 
Q 594 497 594 1153 
L 594 3053 
L 172 3053 
L 172 3500 
L 594 3500 
L 594 4494 
L 1172 4494 
z
" transform="scale(0.015625)"/>
        <path id="DejaVuSans-65" d="M 3597 1894 
L 3597 1613 
L 953 1613 
Q 991 1019 1311 708 
Q 1631 397 2203 397 
Q 2534 397 2845 478 
Q 3156 559 3463 722 
L 3463 178 
Q 3153 47 2828 -22 
Q 2503 -91 2169 -91 
Q 1331 -91 842 396 
Q 353 884 353 1716 
Q 353 2575 817 3079 
Q 1281 3584 2069 3584 
Q 2775 3584 3186 3129 
Q 3597 2675 3597 1894 
z
M 3022 2063 
Q 3016 2534 2758 2815 
Q 2500 3097 2075 3097 
Q 1594 3097 1305 2825 
Q 1016 2553 972 2059 
L 3022 2063 
z
" transform="scale(0.015625)"/>
        <path id="DejaVuSans-72" d="M 2631 2963 
Q 2534 3019 2420 3045 
Q 2306 3072 2169 3072 
Q 1681 3072 1420 2755 
Q 1159 2438 1159 1844 
L 1159 0 
L 581 0 
L 581 3500 
L 1159 3500 
L 1159 2956 
Q 1341 3275 1631 3429 
Q 1922 3584 2338 3584 
Q 2397 3584 2469 3576 
Q 2541 3569 2628 3553 
L 2631 2963 
z
" transform="scale(0.015625)"/>
       </defs>
       <use xlink:href="#DejaVuSans-69"/>
       <use xlink:href="#DejaVuSans-6e" transform="translate(27.783203 0)"/>
       <use xlink:href="#DejaVuSans-74" transform="translate(91.162109 0)"/>
       <use xlink:href="#DejaVuSans-65" transform="translate(130.371094 0)"/>
       <use xlink:href="#DejaVuSans-72" transform="translate(191.894531 0)"/>
      </g>
     </g>
    </g>
    <g id="xtick_2">
     <g id="line2d_2">
      <g>
       <use xlink:href="#m99a3cfd248" x="327.86375" y="404.12" style="stroke: #000000; stroke-width: 0.8"/>
      </g>
     </g>
     <g id="text_2">
      <!-- intra -->
      <g transform="translate(316.22625 418.718437) scale(0.1 -0.1)">
       <defs>
        <path id="DejaVuSans-61" d="M 2194 1759 
Q 1497 1759 1228 1600 
Q 959 1441 959 1056 
Q 959 750 1161 570 
Q 1363 391 1709 391 
Q 2188 391 2477 730 
Q 2766 1069 2766 1631 
L 2766 1759 
L 2194 1759 
z
M 3341 1997 
L 3341 0 
L 2766 0 
L 2766 531 
Q 2569 213 2275 61 
Q 1981 -91 1556 -91 
Q 1019 -91 701 211 
Q 384 513 384 1019 
Q 384 1609 779 1909 
Q 1175 2209 1959 2209 
L 2766 2209 
L 2766 2266 
Q 2766 2663 2505 2880 
Q 2244 3097 1772 3097 
Q 1472 3097 1187 3025 
Q 903 2953 641 2809 
L 641 3341 
Q 956 3463 1253 3523 
Q 1550 3584 1831 3584 
Q 2591 3584 2966 3190 
Q 3341 2797 3341 1997 
z
" transform="scale(0.015625)"/>
       </defs>
       <use xlink:href="#DejaVuSans-69"/>
       <use xlink:href="#DejaVuSans-6e" transform="translate(27.783203 0)"/>
       <use xlink:href="#DejaVuSans-74" transform="translate(91.162109 0)"/>
       <use xlink:href="#DejaVuSans-72" transform="translate(130.371094 0)"/>
       <use xlink:href="#DejaVuSans-61" transform="translate(171.484375 0)"/>
      </g>
     </g>
    </g>
   </g>
   <g id="matplotlib.axis_2">
    <g id="ytick_1">
     <g id="line2d_3">
      <defs>
       <path id="m7d13454959" d="M 0 0 
L -3.5 0 
" style="stroke: #000000; stroke-width: 0.8"/>
      </defs>
      <g>
       <use xlink:href="#m7d13454959" x="47.855" y="382.652643" style="stroke: #000000; stroke-width: 0.8"/>
      </g>
     </g>
     <g id="text_3">
      <!-- 0.0 -->
      <g transform="translate(24.951875 386.451861) scale(0.1 -0.1)">
       <defs>
        <path id="DejaVuSans-30" d="M 2034 4250 
Q 1547 4250 1301 3770 
Q 1056 3291 1056 2328 
Q 1056 1369 1301 889 
Q 1547 409 2034 409 
Q 2525 409 2770 889 
Q 3016 1369 3016 2328 
Q 3016 3291 2770 3770 
Q 2525 4250 2034 4250 
z
M 2034 4750 
Q 2819 4750 3233 4129 
Q 3647 3509 3647 2328 
Q 3647 1150 3233 529 
Q 2819 -91 2034 -91 
Q 1250 -91 836 529 
Q 422 1150 422 2328 
Q 422 3509 836 4129 
Q 1250 4750 2034 4750 
z
" transform="scale(0.015625)"/>
        <path id="DejaVuSans-2e" d="M 684 794 
L 1344 794 
L 1344 0 
L 684 0 
L 684 794 
z
" transform="scale(0.015625)"/>
       </defs>
       <use xlink:href="#DejaVuSans-30"/>
       <use xlink:href="#DejaVuSans-2e" transform="translate(63.623047 0)"/>
       <use xlink:href="#DejaVuSans-30" transform="translate(95.410156 0)"/>
      </g>
     </g>
    </g>
    <g id="ytick_2">
     <g id="line2d_4">
      <g>
       <use xlink:href="#m7d13454959" x="47.855" y="314.029769" style="stroke: #000000; stroke-width: 0.8"/>
      </g>
     </g>
     <g id="text_4">
      <!-- 0.2 -->
      <g transform="translate(24.951875 317.828987) scale(0.1 -0.1)">
       <defs>
        <path id="DejaVuSans-32" d="M 1228 531 
L 3431 531 
L 3431 0 
L 469 0 
L 469 531 
Q 828 903 1448 1529 
Q 2069 2156 2228 2338 
Q 2531 2678 2651 2914 
Q 2772 3150 2772 3378 
Q 2772 3750 2511 3984 
Q 2250 4219 1831 4219 
Q 1534 4219 1204 4116 
Q 875 4013 500 3803 
L 500 4441 
Q 881 4594 1212 4672 
Q 1544 4750 1819 4750 
Q 2544 4750 2975 4387 
Q 3406 4025 3406 3419 
Q 3406 3131 3298 2873 
Q 3191 2616 2906 2266 
Q 2828 2175 2409 1742 
Q 1991 1309 1228 531 
z
" transform="scale(0.015625)"/>
       </defs>
       <use xlink:href="#DejaVuSans-30"/>
       <use xlink:href="#DejaVuSans-2e" transform="translate(63.623047 0)"/>
       <use xlink:href="#DejaVuSans-32" transform="translate(95.410156 0)"/>
      </g>
     </g>
    </g>
    <g id="ytick_3">
     <g id="line2d_5">
      <g>
       <use xlink:href="#m7d13454959" x="47.855" y="245.406894" style="stroke: #000000; stroke-width: 0.8"/>
      </g>
     </g>
     <g id="text_5">
      <!-- 0.4 -->
      <g transform="translate(24.951875 249.206113) scale(0.1 -0.1)">
       <defs>
        <path id="DejaVuSans-34" d="M 2419 4116 
L 825 1625 
L 2419 1625 
L 2419 4116 
z
M 2253 4666 
L 3047 4666 
L 3047 1625 
L 3713 1625 
L 3713 1100 
L 3047 1100 
L 3047 0 
L 2419 0 
L 2419 1100 
L 313 1100 
L 313 1709 
L 2253 4666 
z
" transform="scale(0.015625)"/>
       </defs>
       <use xlink:href="#DejaVuSans-30"/>
       <use xlink:href="#DejaVuSans-2e" transform="translate(63.623047 0)"/>
       <use xlink:href="#DejaVuSans-34" transform="translate(95.410156 0)"/>
      </g>
     </g>
    </g>
    <g id="ytick_4">
     <g id="line2d_6">
      <g>
       <use xlink:href="#m7d13454959" x="47.855" y="176.78402" style="stroke: #000000; stroke-width: 0.8"/>
      </g>
     </g>
     <g id="text_6">
      <!-- 0.6 -->
      <g transform="translate(24.951875 180.583239) scale(0.1 -0.1)">
       <defs>
        <path id="DejaVuSans-36" d="M 2113 2584 
Q 1688 2584 1439 2293 
Q 1191 2003 1191 1497 
Q 1191 994 1439 701 
Q 1688 409 2113 409 
Q 2538 409 2786 701 
Q 3034 994 3034 1497 
Q 3034 2003 2786 2293 
Q 2538 2584 2113 2584 
z
M 3366 4563 
L 3366 3988 
Q 3128 4100 2886 4159 
Q 2644 4219 2406 4219 
Q 1781 4219 1451 3797 
Q 1122 3375 1075 2522 
Q 1259 2794 1537 2939 
Q 1816 3084 2150 3084 
Q 2853 3084 3261 2657 
Q 3669 2231 3669 1497 
Q 3669 778 3244 343 
Q 2819 -91 2113 -91 
Q 1303 -91 875 529 
Q 447 1150 447 2328 
Q 447 3434 972 4092 
Q 1497 4750 2381 4750 
Q 2619 4750 2861 4703 
Q 3103 4656 3366 4563 
z
" transform="scale(0.015625)"/>
       </defs>
       <use xlink:href="#DejaVuSans-30"/>
       <use xlink:href="#DejaVuSans-2e" transform="translate(63.623047 0)"/>
       <use xlink:href="#DejaVuSans-36" transform="translate(95.410156 0)"/>
      </g>
     </g>
    </g>
    <g id="ytick_5">
     <g id="line2d_7">
      <g>
       <use xlink:href="#m7d13454959" x="47.855" y="108.161146" style="stroke: #000000; stroke-width: 0.8"/>
      </g>
     </g>
     <g id="text_7">
      <!-- 0.8 -->
      <g transform="translate(24.951875 111.960365) scale(0.1 -0.1)">
       <defs>
        <path id="DejaVuSans-38" d="M 2034 2216 
Q 1584 2216 1326 1975 
Q 1069 1734 1069 1313 
Q 1069 891 1326 650 
Q 1584 409 2034 409 
Q 2484 409 2743 651 
Q 3003 894 3003 1313 
Q 3003 1734 2745 1975 
Q 2488 2216 2034 2216 
z
M 1403 2484 
Q 997 2584 770 2862 
Q 544 3141 544 3541 
Q 544 4100 942 4425 
Q 1341 4750 2034 4750 
Q 2731 4750 3128 4425 
Q 3525 4100 3525 3541 
Q 3525 3141 3298 2862 
Q 3072 2584 2669 2484 
Q 3125 2378 3379 2068 
Q 3634 1759 3634 1313 
Q 3634 634 3220 271 
Q 2806 -91 2034 -91 
Q 1263 -91 848 271 
Q 434 634 434 1313 
Q 434 1759 690 2068 
Q 947 2378 1403 2484 
z
M 1172 3481 
Q 1172 3119 1398 2916 
Q 1625 2713 2034 2713 
Q 2441 2713 2670 2916 
Q 2900 3119 2900 3481 
Q 2900 3844 2670 4047 
Q 2441 4250 2034 4250 
Q 1625 4250 1398 4047 
Q 1172 3844 1172 3481 
z
" transform="scale(0.015625)"/>
       </defs>
       <use xlink:href="#DejaVuSans-30"/>
       <use xlink:href="#DejaVuSans-2e" transform="translate(63.623047 0)"/>
       <use xlink:href="#DejaVuSans-38" transform="translate(95.410156 0)"/>
      </g>
     </g>
    </g>
    <g id="ytick_6">
     <g id="line2d_8">
      <g>
       <use xlink:href="#m7d13454959" x="47.855" y="39.538272" style="stroke: #000000; stroke-width: 0.8"/>
      </g>
     </g>
     <g id="text_8">
      <!-- 1.0 -->
      <g transform="translate(24.951875 43.337491) scale(0.1 -0.1)">
       <defs>
        <path id="DejaVuSans-31" d="M 794 531 
L 1825 531 
L 1825 4091 
L 703 3866 
L 703 4441 
L 1819 4666 
L 2450 4666 
L 2450 531 
L 3481 531 
L 3481 0 
L 794 0 
L 794 531 
z
" transform="scale(0.015625)"/>
       </defs>
       <use xlink:href="#DejaVuSans-31"/>
       <use xlink:href="#DejaVuSans-2e" transform="translate(63.623047 0)"/>
       <use xlink:href="#DejaVuSans-30" transform="translate(95.410156 0)"/>
      </g>
     </g>
    </g>
    <g id="text_9">
     <!-- Pairwise Distance -->
     <g transform="translate(18.872188 259.049375) rotate(-90) scale(0.1 -0.1)">
      <defs>
       <path id="DejaVuSans-50" d="M 1259 4147 
L 1259 2394 
L 2053 2394 
Q 2494 2394 2734 2622 
Q 2975 2850 2975 3272 
Q 2975 3691 2734 3919 
Q 2494 4147 2053 4147 
L 1259 4147 
z
M 628 4666 
L 2053 4666 
Q 2838 4666 3239 4311 
Q 3641 3956 3641 3272 
Q 3641 2581 3239 2228 
Q 2838 1875 2053 1875 
L 1259 1875 
L 1259 0 
L 628 0 
L 628 4666 
z
" transform="scale(0.015625)"/>
       <path id="DejaVuSans-77" d="M 269 3500 
L 844 3500 
L 1563 769 
L 2278 3500 
L 2956 3500 
L 3675 769 
L 4391 3500 
L 4966 3500 
L 4050 0 
L 3372 0 
L 2619 2869 
L 1863 0 
L 1184 0 
L 269 3500 
z
" transform="scale(0.015625)"/>
       <path id="DejaVuSans-73" d="M 2834 3397 
L 2834 2853 
Q 2591 2978 2328 3040 
Q 2066 3103 1784 3103 
Q 1356 3103 1142 2972 
Q 928 2841 928 2578 
Q 928 2378 1081 2264 
Q 1234 2150 1697 2047 
L 1894 2003 
Q 2506 1872 2764 1633 
Q 3022 1394 3022 966 
Q 3022 478 2636 193 
Q 2250 -91 1575 -91 
Q 1294 -91 989 -36 
Q 684 19 347 128 
L 347 722 
Q 666 556 975 473 
Q 1284 391 1588 391 
Q 1994 391 2212 530 
Q 2431 669 2431 922 
Q 2431 1156 2273 1281 
Q 2116 1406 1581 1522 
L 1381 1569 
Q 847 1681 609 1914 
Q 372 2147 372 2553 
Q 372 3047 722 3315 
Q 1072 3584 1716 3584 
Q 2034 3584 2315 3537 
Q 2597 3491 2834 3397 
z
" transform="scale(0.015625)"/>
       <path id="DejaVuSans-20" transform="scale(0.015625)"/>
       <path id="DejaVuSans-44" d="M 1259 4147 
L 1259 519 
L 2022 519 
Q 2988 519 3436 956 
Q 3884 1394 3884 2338 
Q 3884 3275 3436 3711 
Q 2988 4147 2022 4147 
L 1259 4147 
z
M 628 4666 
L 1925 4666 
Q 3281 4666 3915 4102 
Q 4550 3538 4550 2338 
Q 4550 1131 3912 565 
Q 3275 0 1925 0 
L 628 0 
L 628 4666 
z
" transform="scale(0.015625)"/>
       <path id="DejaVuSans-63" d="M 3122 3366 
L 3122 2828 
Q 2878 2963 2633 3030 
Q 2388 3097 2138 3097 
Q 1578 3097 1268 2742 
Q 959 2388 959 1747 
Q 959 1106 1268 751 
Q 1578 397 2138 397 
Q 2388 397 2633 464 
Q 2878 531 3122 666 
L 3122 134 
Q 2881 22 2623 -34 
Q 2366 -91 2075 -91 
Q 1284 -91 818 406 
Q 353 903 353 1747 
Q 353 2603 823 3093 
Q 1294 3584 2113 3584 
Q 2378 3584 2631 3529 
Q 2884 3475 3122 3366 
z
" transform="scale(0.015625)"/>
      </defs>
      <use xlink:href="#DejaVuSans-50"/>
      <use xlink:href="#DejaVuSans-61" transform="translate(55.802734 0)"/>
      <use xlink:href="#DejaVuSans-69" transform="translate(117.082031 0)"/>
      <use xlink:href="#DejaVuSans-72" transform="translate(144.865234 0)"/>
      <use xlink:href="#DejaVuSans-77" transform="translate(185.978516 0)"/>
      <use xlink:href="#DejaVuSans-69" transform="translate(267.765625 0)"/>
      <use xlink:href="#DejaVuSans-73" transform="translate(295.548828 0)"/>
      <use xlink:href="#DejaVuSans-65" transform="translate(347.648438 0)"/>
      <use xlink:href="#DejaVuSans-20" transform="translate(409.171875 0)"/>
      <use xlink:href="#DejaVuSans-44" transform="translate(440.958984 0)"/>
      <use xlink:href="#DejaVuSans-69" transform="translate(517.960938 0)"/>
      <use xlink:href="#DejaVuSans-73" transform="translate(545.744141 0)"/>
      <use xlink:href="#DejaVuSans-74" transform="translate(597.84375 0)"/>
      <use xlink:href="#DejaVuSans-61" transform="translate(637.052734 0)"/>
      <use xlink:href="#DejaVuSans-6e" transform="translate(698.332031 0)"/>
      <use xlink:href="#DejaVuSans-63" transform="translate(761.710938 0)"/>
      <use xlink:href="#DejaVuSans-65" transform="translate(816.691406 0)"/>
     </g>
    </g>
   </g>
   <g id="line2d_9">
    <path d="M 141.19125 382.610763 
L 141.19125 240.96352 
" clip-path="url(#pb4ecdf123c)" style="fill: none; stroke: #3f3f3f; stroke-width: 1.875; stroke-linecap: square"/>
   </g>
   <g id="line2d_10">
    <path d="M 141.19125 354.821499 
L 141.19125 309.278243 
" clip-path="url(#pb4ecdf123c)" style="fill: none; stroke: #3f3f3f; stroke-width: 5.625; stroke-linecap: square"/>
   </g>
   <g id="line2d_11">
    <path d="M 141.19125 336.013134 
" clip-path="url(#pb4ecdf123c)" style="fill: none; stroke: #3f3f3f; stroke-width: 1.5; stroke-linecap: square"/>
    <defs>
     <path id="mf41394f8ac" d="M 2.34375 0 
L -2.34375 -0 
" style="stroke: #ffffff; stroke-width: 1.125"/>
    </defs>
    <g clip-path="url(#pb4ecdf123c)">
     <use xlink:href="#mf41394f8ac" x="141.19125" y="336.013134" style="fill: #ffffff; stroke: #ffffff; stroke-width: 1.125"/>
    </g>
   </g>
   <g id="line2d_12">
    <path d="M 327.86375 382.563048 
L 327.86375 262.522677 
" clip-path="url(#pb4ecdf123c)" style="fill: none; stroke: #3f3f3f; stroke-width: 1.875; stroke-linecap: square"/>
   </g>
   <g id="line2d_13">
    <path d="M 327.86375 357.546509 
L 327.86375 319.536383 
" clip-path="url(#pb4ecdf123c)" style="fill: none; stroke: #3f3f3f; stroke-width: 5.625; stroke-linecap: square"/>
   </g>
   <g id="line2d_14">
    <path d="M 327.86375 341.279892 
" clip-path="url(#pb4ecdf123c)" style="fill: none; stroke: #3f3f3f; stroke-width: 1.5; stroke-linecap: square"/>
    <g clip-path="url(#pb4ecdf123c)">
     <use xlink:href="#mf41394f8ac" x="327.86375" y="341.279892" style="fill: #ffffff; stroke: #ffffff; stroke-width: 1.125"/>
    </g>
   </g>
   <g id="patch_3">
    <path d="M 47.855 404.12 
L 47.855 26.16 
" style="fill: none; stroke: #000000; stroke-width: 0.8; stroke-linejoin: miter; stroke-linecap: square"/>
   </g>
   <g id="patch_4">
    <path d="M 421.2 404.12 
L 421.2 26.16 
" style="fill: none; stroke: #000000; stroke-width: 0.8; stroke-linejoin: miter; stroke-linecap: square"/>
   </g>
   <g id="patch_5">
    <path d="M 47.855 404.12 
L 421.2 404.12 
" style="fill: none; stroke: #000000; stroke-width: 0.8; stroke-linejoin: miter; stroke-linecap: square"/>
   </g>
   <g id="patch_6">
    <path d="M 47.855 26.16 
L 421.2 26.16 
" style="fill: none; stroke: #000000; stroke-width: 0.8; stroke-linejoin: miter; stroke-linecap: square"/>
   </g>
   <g id="text_10">
    <!-- inv_eigenval - PCA (2D) Distances -->
    <g transform="translate(132.765625 20.16) scale(0.12 -0.12)">
     <defs>
      <path id="DejaVuSans-76" d="M 191 3500 
L 800 3500 
L 1894 563 
L 2988 3500 
L 3597 3500 
L 2284 0 
L 1503 0 
L 191 3500 
z
" transform="scale(0.015625)"/>
      <path id="DejaVuSans-5f" d="M 3263 -1063 
L 3263 -1509 
L -63 -1509 
L -63 -1063 
L 3263 -1063 
z
" transform="scale(0.015625)"/>
      <path id="DejaVuSans-67" d="M 2906 1791 
Q 2906 2416 2648 2759 
Q 2391 3103 1925 3103 
Q 1463 3103 1205 2759 
Q 947 2416 947 1791 
Q 947 1169 1205 825 
Q 1463 481 1925 481 
Q 2391 481 2648 825 
Q 2906 1169 2906 1791 
z
M 3481 434 
Q 3481 -459 3084 -895 
Q 2688 -1331 1869 -1331 
Q 1566 -1331 1297 -1286 
Q 1028 -1241 775 -1147 
L 775 -588 
Q 1028 -725 1275 -790 
Q 1522 -856 1778 -856 
Q 2344 -856 2625 -561 
Q 2906 -266 2906 331 
L 2906 616 
Q 2728 306 2450 153 
Q 2172 0 1784 0 
Q 1141 0 747 490 
Q 353 981 353 1791 
Q 353 2603 747 3093 
Q 1141 3584 1784 3584 
Q 2172 3584 2450 3431 
Q 2728 3278 2906 2969 
L 2906 3500 
L 3481 3500 
L 3481 434 
z
" transform="scale(0.015625)"/>
      <path id="DejaVuSans-6c" d="M 603 4863 
L 1178 4863 
L 1178 0 
L 603 0 
L 603 4863 
z
" transform="scale(0.015625)"/>
      <path id="DejaVuSans-2d" d="M 313 2009 
L 1997 2009 
L 1997 1497 
L 313 1497 
L 313 2009 
z
" transform="scale(0.015625)"/>
      <path id="DejaVuSans-43" d="M 4122 4306 
L 4122 3641 
Q 3803 3938 3442 4084 
Q 3081 4231 2675 4231 
Q 1875 4231 1450 3742 
Q 1025 3253 1025 2328 
Q 1025 1406 1450 917 
Q 1875 428 2675 428 
Q 3081 428 3442 575 
Q 3803 722 4122 1019 
L 4122 359 
Q 3791 134 3420 21 
Q 3050 -91 2638 -91 
Q 1578 -91 968 557 
Q 359 1206 359 2328 
Q 359 3453 968 4101 
Q 1578 4750 2638 4750 
Q 3056 4750 3426 4639 
Q 3797 4528 4122 4306 
z
" transform="scale(0.015625)"/>
      <path id="DejaVuSans-41" d="M 2188 4044 
L 1331 1722 
L 3047 1722 
L 2188 4044 
z
M 1831 4666 
L 2547 4666 
L 4325 0 
L 3669 0 
L 3244 1197 
L 1141 1197 
L 716 0 
L 50 0 
L 1831 4666 
z
" transform="scale(0.015625)"/>
      <path id="DejaVuSans-28" d="M 1984 4856 
Q 1566 4138 1362 3434 
Q 1159 2731 1159 2009 
Q 1159 1288 1364 580 
Q 1569 -128 1984 -844 
L 1484 -844 
Q 1016 -109 783 600 
Q 550 1309 550 2009 
Q 550 2706 781 3412 
Q 1013 4119 1484 4856 
L 1984 4856 
z
" transform="scale(0.015625)"/>
      <path id="DejaVuSans-29" d="M 513 4856 
L 1013 4856 
Q 1481 4119 1714 3412 
Q 1947 2706 1947 2009 
Q 1947 1309 1714 600 
Q 1481 -109 1013 -844 
L 513 -844 
Q 928 -128 1133 580 
Q 1338 1288 1338 2009 
Q 1338 2731 1133 3434 
Q 928 4138 513 4856 
z
" transform="scale(0.015625)"/>
     </defs>
     <use xlink:href="#DejaVuSans-69"/>
     <use xlink:href="#DejaVuSans-6e" transform="translate(27.783203 0)"/>
     <use xlink:href="#DejaVuSans-76" transform="translate(91.162109 0)"/>
     <use xlink:href="#DejaVuSans-5f" transform="translate(150.341797 0)"/>
     <use xlink:href="#DejaVuSans-65" transform="translate(200.341797 0)"/>
     <use xlink:href="#DejaVuSans-69" transform="translate(261.865234 0)"/>
     <use xlink:href="#DejaVuSans-67" transform="translate(289.648438 0)"/>
     <use xlink:href="#DejaVuSans-65" transform="translate(353.125 0)"/>
     <use xlink:href="#DejaVuSans-6e" transform="translate(414.648438 0)"/>
     <use xlink:href="#DejaVuSans-76" transform="translate(478.027344 0)"/>
     <use xlink:href="#DejaVuSans-61" transform="translate(537.207031 0)"/>
     <use xlink:href="#DejaVuSans-6c" transform="translate(598.486328 0)"/>
     <use xlink:href="#DejaVuSans-20" transform="translate(626.269531 0)"/>
     <use xlink:href="#DejaVuSans-2d" transform="translate(658.056641 0)"/>
     <use xlink:href="#DejaVuSans-20" transform="translate(694.140625 0)"/>
     <use xlink:href="#DejaVuSans-50" transform="translate(725.927734 0)"/>
     <use xlink:href="#DejaVuSans-43" transform="translate(786.230469 0)"/>
     <use xlink:href="#DejaVuSans-41" transform="translate(856.054688 0)"/>
     <use xlink:href="#DejaVuSans-20" transform="translate(924.462891 0)"/>
     <use xlink:href="#DejaVuSans-28" transform="translate(956.25 0)"/>
     <use xlink:href="#DejaVuSans-32" transform="translate(995.263672 0)"/>
     <use xlink:href="#DejaVuSans-44" transform="translate(1058.886719 0)"/>
     <use xlink:href="#DejaVuSans-29" transform="translate(1135.888672 0)"/>
     <use xlink:href="#DejaVuSans-20" transform="translate(1174.902344 0)"/>
     <use xlink:href="#DejaVuSans-44" transform="translate(1206.689453 0)"/>
     <use xlink:href="#DejaVuSans-69" transform="translate(1283.691406 0)"/>
     <use xlink:href="#DejaVuSans-73" transform="translate(1311.474609 0)"/>
     <use xlink:href="#DejaVuSans-74" transform="translate(1363.574219 0)"/>
     <use xlink:href="#DejaVuSans-61" transform="translate(1402.783203 0)"/>
     <use xlink:href="#DejaVuSans-6e" transform="translate(1464.0625 0)"/>
     <use xlink:href="#DejaVuSans-63" transform="translate(1527.441406 0)"/>
     <use xlink:href="#DejaVuSans-65" transform="translate(1582.421875 0)"/>
     <use xlink:href="#DejaVuSans-73" transform="translate(1643.945312 0)"/>
    </g>
   </g>
  </g>
 </g>
 <defs>
  <clipPath id="pb4ecdf123c">
   <rect x="47.855" y="26.16" width="373.345" height="377.96"/>
  </clipPath>
 </defs>
</svg>
