<?xml version="1.0" encoding="utf-8" standalone="no"?>
<!DOCTYPE svg PUBLIC "-//W3C//DTD SVG 1.1//EN"
  "http://www.w3.org/Graphics/SVG/1.1/DTD/svg11.dtd">
<svg xmlns:xlink="http://www.w3.org/1999/xlink" width="432pt" height="432pt" viewBox="0 0 432 432" xmlns="http://www.w3.org/2000/svg" version="1.1">
 <metadata>
  <rdf:RDF xmlns:dc="http://purl.org/dc/elements/1.1/" xmlns:cc="http://creativecommons.org/ns#" xmlns:rdf="http://www.w3.org/1999/02/22-rdf-syntax-ns#">
   <cc:Work>
    <dc:type rdf:resource="http://purl.org/dc/dcmitype/StillImage"/>
    <dc:date>2026-02-17T16:55:15.929067</dc:date>
    <dc:format>image/svg+xml</dc:format>
    <dc:creator>
     <cc:Agent>
      <dc:title>Matplotlib v3.10.3, https://matplotlib.org/</dc:title>
     </cc:Agent>
    </dc:creator>
   </cc:Work>
  </rdf:RDF>
 </metadata>
 <defs>
  <style type="text/css">*{stroke-linejoin: round; stroke-linecap: butt}</style>
 </defs>
 <g id="figure_1">
  <g id="patch_1">
   <path d="M 0 432 
L 432 432 
L 432 0 
L 0 0 
z
" style="fill: #ffffff"/>
  </g>
  <g id="axes_1">
   <g id="patch_2">
    <path d="M 51.005 404.12 
L 421.2 404.12 
L 421.2 26.16 
L 51.005 26.16 
z
" style="fill: #ffffff"/>
   </g>
   <g id="FillBetweenPolyCollection_1">
    <defs>
     <path id="m12c3dbabeb" d="M 145.030462 -45.06 
L 142.077038 -45.06 
L 134.550493 -48.530707 
L 114.82869 -52.001414 
L 90.281482 -55.472121 
L 75.59903 -58.942828 
L 71.015401 -62.413535 
L 69.909032 -65.884242 
L 69.538009 -69.354949 
L 69.51475 -72.825657 
L 69.92151 -76.296364 
L 70.414008 -79.767071 
L 70.904078 -83.237778 
L 71.328603 -86.708485 
L 71.440647 -90.179192 
L 71.329981 -93.649899 
L 71.247175 -97.120606 
L 71.398085 -100.591313 
L 71.711479 -104.06202 
L 72.172298 -107.532727 
L 72.788913 -111.003434 
L 73.457202 -114.474141 
L 73.9189 -117.944848 
L 74.189237 -121.415556 
L 74.640387 -124.886263 
L 75.435853 -128.35697 
L 76.427588 -131.827677 
L 77.242469 -135.298384 
L 77.721532 -138.769091 
L 78.201138 -142.239798 
L 78.895189 -145.710505 
L 79.775376 -149.181212 
L 80.755362 -152.651919 
L 81.712885 -156.122626 
L 82.451823 -159.593333 
L 83.084104 -163.06404 
L 83.927875 -166.534747 
L 84.760854 -170.005455 
L 85.442013 -173.476162 
L 86.313585 -176.946869 
L 87.55603 -180.417576 
L 88.890372 -183.888283 
L 90.048086 -187.35899 
L 91.190135 -190.829697 
L 92.366349 -194.300404 
L 93.485159 -197.771111 
L 94.425655 -201.241818 
L 95.266872 -204.712525 
L 96.220748 -208.183232 
L 97.363882 -211.653939 
L 98.692805 -215.124646 
L 99.960174 -218.595354 
L 101.090565 -222.066061 
L 102.283973 -225.536768 
L 103.546389 -229.007475 
L 104.721125 -232.478182 
L 105.828874 -235.948889 
L 106.96135 -239.419596 
L 108.115419 -242.890303 
L 109.187841 -246.36101 
L 110.252714 -249.831717 
L 111.404881 -253.302424 
L 112.537011 -256.773131 
L 113.689512 -260.243838 
L 114.889467 -263.714545 
L 116.101689 -267.185253 
L 117.28287 -270.65596 
L 118.454241 -274.126667 
L 119.624128 -277.597374 
L 120.715048 -281.068081 
L 121.722305 -284.538788 
L 122.713332 -288.009495 
L 123.702007 -291.480202 
L 124.646036 -294.950909 
L 125.573518 -298.421616 
L 126.505603 -301.892323 
L 127.450148 -305.36303 
L 128.465289 -308.833737 
L 129.560911 -312.304444 
L 130.687476 -315.775152 
L 131.749647 -319.245859 
L 132.702055 -322.716566 
L 133.58403 -326.187273 
L 134.480084 -329.65798 
L 135.351754 -333.128687 
L 136.161356 -336.599394 
L 136.936326 -340.070101 
L 137.68359 -343.540808 
L 138.3803 -347.011515 
L 139.025039 -350.482222 
L 139.669826 -353.952929 
L 140.33028 -357.423636 
L 140.92195 -360.894343 
L 141.360809 -364.365051 
L 141.693165 -367.835758 
L 142.023684 -371.306465 
L 142.435733 -374.777172 
L 142.903487 -378.247879 
L 143.285826 -381.718586 
L 143.484527 -385.189293 
L 143.543712 -388.66 
L 143.563788 -388.66 
L 143.563788 -388.66 
L 143.622973 -385.189293 
L 143.821674 -381.718586 
L 144.204013 -378.247879 
L 144.671767 -374.777172 
L 145.083816 -371.306465 
L 145.414335 -367.835758 
L 145.746691 -364.365051 
L 146.18555 -360.894343 
L 146.77722 -357.423636 
L 147.437674 -353.952929 
L 148.082461 -350.482222 
L 148.7272 -347.011515 
L 149.42391 -343.540808 
L 150.171174 -340.070101 
L 150.946144 -336.599394 
L 151.755746 -333.128687 
L 152.627416 -329.65798 
L 153.52347 -326.187273 
L 154.405445 -322.716566 
L 155.357853 -319.245859 
L 156.420024 -315.775152 
L 157.546589 -312.304444 
L 158.642211 -308.833737 
L 159.657352 -305.36303 
L 160.601897 -301.892323 
L 161.533982 -298.421616 
L 162.461464 -294.950909 
L 163.405493 -291.480202 
L 164.394168 -288.009495 
L 165.385195 -284.538788 
L 166.392452 -281.068081 
L 167.483372 -277.597374 
L 168.653259 -274.126667 
L 169.82463 -270.65596 
L 171.005811 -267.185253 
L 172.218033 -263.714545 
L 173.417988 -260.243838 
L 174.570489 -256.773131 
L 175.702619 -253.302424 
L 176.854786 -249.831717 
L 177.919659 -246.36101 
L 178.992081 -242.890303 
L 180.14615 -239.419596 
L 181.278626 -235.948889 
L 182.386375 -232.478182 
L 183.561111 -229.007475 
L 184.823527 -225.536768 
L 186.016935 -222.066061 
L 187.147326 -218.595354 
L 188.414695 -215.124646 
L 189.743618 -211.653939 
L 190.886752 -208.183232 
L 191.840628 -204.712525 
L 192.681845 -201.241818 
L 193.622341 -197.771111 
L 194.741151 -194.300404 
L 195.917365 -190.829697 
L 197.059414 -187.35899 
L 198.217128 -183.888283 
L 199.55147 -180.417576 
L 200.793915 -176.946869 
L 201.665487 -173.476162 
L 202.346646 -170.005455 
L 203.179625 -166.534747 
L 204.023396 -163.06404 
L 204.655677 -159.593333 
L 205.394615 -156.122626 
L 206.352138 -152.651919 
L 207.332124 -149.181212 
L 208.212311 -145.710505 
L 208.906362 -142.239798 
L 209.385968 -138.769091 
L 209.865031 -135.298384 
L 210.679912 -131.827677 
L 211.671647 -128.35697 
L 212.467113 -124.886263 
L 212.918263 -121.415556 
L 213.1886 -117.944848 
L 213.650298 -114.474141 
L 214.318587 -111.003434 
L 214.935202 -107.532727 
L 215.396021 -104.06202 
L 215.709415 -100.591313 
L 215.860325 -97.120606 
L 215.777519 -93.649899 
L 215.666853 -90.179192 
L 215.778897 -86.708485 
L 216.203422 -83.237778 
L 216.693492 -79.767071 
L 217.18599 -76.296364 
L 217.59275 -72.825657 
L 217.569491 -69.354949 
L 217.198468 -65.884242 
L 216.092099 -62.413535 
L 211.50847 -58.942828 
L 196.826018 -55.472121 
L 172.27881 -52.001414 
L 152.557007 -48.530707 
L 145.030462 -45.06 
z
" style="stroke: #3f3f3f; stroke-width: 1.25"/>
    </defs>
    <g clip-path="url(#pd1ef625e12)">
     <use xlink:href="#m12c3dbabeb" x="0" y="432" style="fill: #e1812c; stroke: #3f3f3f; stroke-width: 1.25"/>
    </g>
   </g>
   <g id="FillBetweenPolyCollection_2">
    <defs>
     <path id="m7245594a71" d="M 330.653244 -45.173961 
L 326.649256 -45.173961 
L 317.553765 -48.502652 
L 295.640277 -51.831342 
L 270.315733 -55.160032 
L 256.79751 -58.488723 
L 254.61225 -61.817413 
L 256.04549 -65.146104 
L 257.60401 -68.474794 
L 258.831212 -71.803484 
L 259.427639 -75.132175 
L 259.887657 -78.460865 
L 260.624695 -81.789556 
L 261.392837 -85.118246 
L 262.512787 -88.446936 
L 264.15197 -91.775627 
L 266.103014 -95.104317 
L 267.927093 -98.433008 
L 269.456489 -101.761698 
L 270.851209 -105.090389 
L 272.04904 -108.419079 
L 273.064311 -111.747769 
L 274.052384 -115.07646 
L 275.544955 -118.40515 
L 277.464656 -121.733841 
L 279.099304 -125.062531 
L 280.114599 -128.391221 
L 280.78959 -131.719912 
L 281.756473 -135.048602 
L 283.282382 -138.377293 
L 284.885168 -141.705983 
L 286.241631 -145.034674 
L 287.377493 -148.363364 
L 288.331976 -151.692054 
L 289.240424 -155.020745 
L 290.524055 -158.349435 
L 292.298122 -161.678126 
L 293.889417 -165.006816 
L 295.24895 -168.335506 
L 296.898742 -171.664197 
L 298.568164 -174.992887 
L 299.717936 -178.321578 
L 300.37218 -181.650268 
L 301.095476 -184.978959 
L 302.093149 -188.307649 
L 303.035221 -191.636339 
L 303.97003 -194.96503 
L 305.024854 -198.29372 
L 306.36354 -201.622411 
L 307.821171 -204.951101 
L 309.118809 -208.279791 
L 310.14569 -211.608482 
L 310.81716 -214.937172 
L 311.535918 -218.265863 
L 312.561856 -221.594553 
L 313.526931 -224.923243 
L 314.200102 -228.251934 
L 314.850604 -231.580624 
L 315.666626 -234.909315 
L 316.53351 -238.238005 
L 317.317727 -241.566696 
L 318.124226 -244.895386 
L 319.029483 -248.224076 
L 319.857229 -251.552767 
L 320.610194 -254.881457 
L 321.27745 -258.210148 
L 321.802626 -261.538838 
L 322.312699 -264.867528 
L 322.792997 -268.196219 
L 323.247667 -271.524909 
L 323.66883 -274.8536 
L 324.025217 -278.18229 
L 324.36721 -281.510981 
L 324.742236 -284.839671 
L 325.154254 -288.168361 
L 325.590042 -291.497052 
L 325.997632 -294.825742 
L 326.325603 -298.154433 
L 326.606596 -301.483123 
L 326.852739 -304.811813 
L 327.009428 -308.140504 
L 327.082576 -311.469194 
L 327.127343 -314.797885 
L 327.177226 -318.126575 
L 327.256495 -321.455266 
L 327.376512 -324.783956 
L 327.504009 -328.112646 
L 327.611064 -331.441337 
L 327.718408 -334.770027 
L 327.833063 -338.098718 
L 327.930841 -341.427408 
L 328.007842 -344.756098 
L 328.076256 -348.084789 
L 328.171409 -351.413479 
L 328.280765 -354.74217 
L 328.340175 -358.07086 
L 328.365293 -361.39955 
L 328.43232 -364.728241 
L 328.538735 -368.056931 
L 328.616764 -371.385622 
L 328.64543 -374.714312 
L 328.65707 -374.714312 
L 328.65707 -374.714312 
L 328.685736 -371.385622 
L 328.763765 -368.056931 
L 328.87018 -364.728241 
L 328.937207 -361.39955 
L 328.962325 -358.07086 
L 329.021735 -354.74217 
L 329.131091 -351.413479 
L 329.226244 -348.084789 
L 329.294658 -344.756098 
L 329.371659 -341.427408 
L 329.469437 -338.098718 
L 329.584092 -334.770027 
L 329.691436 -331.441337 
L 329.798491 -328.112646 
L 329.925988 -324.783956 
L 330.046005 -321.455266 
L 330.125274 -318.126575 
L 330.175157 -314.797885 
L 330.219924 -311.469194 
L 330.293072 -308.140504 
L 330.449761 -304.811813 
L 330.695904 -301.483123 
L 330.976897 -298.154433 
L 331.304868 -294.825742 
L 331.712458 -291.497052 
L 332.148246 -288.168361 
L 332.560264 -284.839671 
L 332.93529 -281.510981 
L 333.277283 -278.18229 
L 333.63367 -274.8536 
L 334.054833 -271.524909 
L 334.509503 -268.196219 
L 334.989801 -264.867528 
L 335.499874 -261.538838 
L 336.02505 -258.210148 
L 336.692306 -254.881457 
L 337.445271 -251.552767 
L 338.273017 -248.224076 
L 339.178274 -244.895386 
L 339.984773 -241.566696 
L 340.76899 -238.238005 
L 341.635874 -234.909315 
L 342.451896 -231.580624 
L 343.102398 -228.251934 
L 343.775569 -224.923243 
L 344.740644 -221.594553 
L 345.766582 -218.265863 
L 346.48534 -214.937172 
L 347.15681 -211.608482 
L 348.183691 -208.279791 
L 349.481329 -204.951101 
L 350.93896 -201.622411 
L 352.277646 -198.29372 
L 353.33247 -194.96503 
L 354.267279 -191.636339 
L 355.209351 -188.307649 
L 356.207024 -184.978959 
L 356.93032 -181.650268 
L 357.584564 -178.321578 
L 358.734336 -174.992887 
L 360.403758 -171.664197 
L 362.05355 -168.335506 
L 363.413083 -165.006816 
L 365.004378 -161.678126 
L 366.778445 -158.349435 
L 368.062076 -155.020745 
L 368.970524 -151.692054 
L 369.925007 -148.363364 
L 371.060869 -145.034674 
L 372.417332 -141.705983 
L 374.020118 -138.377293 
L 375.546027 -135.048602 
L 376.51291 -131.719912 
L 377.187901 -128.391221 
L 378.203196 -125.062531 
L 379.837844 -121.733841 
L 381.757545 -118.40515 
L 383.250116 -115.07646 
L 384.238189 -111.747769 
L 385.25346 -108.419079 
L 386.451291 -105.090389 
L 387.846011 -101.761698 
L 389.375407 -98.433008 
L 391.199486 -95.104317 
L 393.15053 -91.775627 
L 394.789713 -88.446936 
L 395.909663 -85.118246 
L 396.677805 -81.789556 
L 397.414843 -78.460865 
L 397.874861 -75.132175 
L 398.471288 -71.803484 
L 399.69849 -68.474794 
L 401.25701 -65.146104 
L 402.69025 -61.817413 
L 400.50499 -58.488723 
L 386.986767 -55.160032 
L 361.662223 -51.831342 
L 339.748735 -48.502652 
L 330.653244 -45.173961 
z
" style="stroke: #3f3f3f; stroke-width: 1.25"/>
    </defs>
    <g clip-path="url(#pd1ef625e12)">
     <use xlink:href="#m7245594a71" x="0" y="432" style="fill: #3274a1; stroke: #3f3f3f; stroke-width: 1.25"/>
    </g>
   </g>
   <g id="matplotlib.axis_1">
    <g id="xtick_1">
     <g id="line2d_1">
      <defs>
       <path id="mf0e8421f8a" d="M 0 0 
L 0 3.5 
" style="stroke: #000000; stroke-width: 0.8"/>
      </defs>
      <g>
       <use xlink:href="#mf0e8421f8a" x="143.55375" y="404.12" style="stroke: #000000; stroke-width: 0.8"/>
      </g>
     </g>
     <g id="text_1">
      <!-- inter -->
      <g transform="translate(131.90375 418.718437) scale(0.1 -0.1)">
       <defs>
        <path id="DejaVuSans-69" d="M 603 3500 
L 1178 3500 
L 1178 0 
L 603 0 
L 603 3500 
z
M 603 4863 
L 1178 4863 
L 1178 4134 
L 603 4134 
L 603 4863 
z
" transform="scale(0.015625)"/>
        <path id="DejaVuSans-6e" d="M 3513 2113 
L 3513 0 
L 2938 0 
L 2938 2094 
Q 2938 2591 2744 2837 
Q 2550 3084 2163 3084 
Q 1697 3084 1428 2787 
Q 1159 2491 1159 1978 
L 1159 0 
L 581 0 
L 581 3500 
L 1159 3500 
L 1159 2956 
Q 1366 3272 1645 3428 
Q 1925 3584 2291 3584 
Q 2894 3584 3203 3211 
Q 3513 2838 3513 2113 
z
" transform="scale(0.015625)"/>
        <path id="DejaVuSans-74" d="M 1172 4494 
L 1172 3500 
L 2356 3500 
L 2356 3053 
L 1172 3053 
L 1172 1153 
Q 1172 725 1289 603 
Q 1406 481 1766 481 
L 2356 481 
L 2356 0 
L 1766 0 
Q 1100 0 847 248 
Q 594 497 594 1153 
L 594 3053 
L 172 3053 
L 172 3500 
L 594 3500 
L 594 4494 
L 1172 4494 
z
" transform="scale(0.015625)"/>
        <path id="DejaVuSans-65" d="M 3597 1894 
L 3597 1613 
L 953 1613 
Q 991 1019 1311 708 
Q 1631 397 2203 397 
Q 2534 397 2845 478 
Q 3156 559 3463 722 
L 3463 178 
Q 3153 47 2828 -22 
Q 2503 -91 2169 -91 
Q 1331 -91 842 396 
Q 353 884 353 1716 
Q 353 2575 817 3079 
Q 1281 3584 2069 3584 
Q 2775 3584 3186 3129 
Q 3597 2675 3597 1894 
z
M 3022 2063 
Q 3016 2534 2758 2815 
Q 2500 3097 2075 3097 
Q 1594 3097 1305 2825 
Q 1016 2553 972 2059 
L 3022 2063 
z
" transform="scale(0.015625)"/>
        <path id="DejaVuSans-72" d="M 2631 2963 
Q 2534 3019 2420 3045 
Q 2306 3072 2169 3072 
Q 1681 3072 1420 2755 
Q 1159 2438 1159 1844 
L 1159 0 
L 581 0 
L 581 3500 
L 1159 3500 
L 1159 2956 
Q 1341 3275 1631 3429 
Q 1922 3584 2338 3584 
Q 2397 3584 2469 3576 
Q 2541 3569 2628 3553 
L 2631 2963 
z
" transform="scale(0.015625)"/>
       </defs>
       <use xlink:href="#DejaVuSans-69"/>
       <use xlink:href="#DejaVuSans-6e" transform="translate(27.783203 0)"/>
       <use xlink:href="#DejaVuSans-74" transform="translate(91.162109 0)"/>
       <use xlink:href="#DejaVuSans-65" transform="translate(130.371094 0)"/>
       <use xlink:href="#DejaVuSans-72" transform="translate(191.894531 0)"/>
      </g>
     </g>
    </g>
    <g id="xtick_2">
     <g id="line2d_2">
      <g>
       <use xlink:href="#mf0e8421f8a" x="328.65125" y="404.12" style="stroke: #000000; stroke-width: 0.8"/>
      </g>
     </g>
     <g id="text_2">
      <!-- intra -->
      <g transform="translate(317.01375 418.718437) scale(0.1 -0.1)">
       <defs>
        <path id="DejaVuSans-61" d="M 2194 1759 
Q 1497 1759 1228 1600 
Q 959 1441 959 1056 
Q 959 750 1161 570 
Q 1363 391 1709 391 
Q 2188 391 2477 730 
Q 2766 1069 2766 1631 
L 2766 1759 
L 2194 1759 
z
M 3341 1997 
L 3341 0 
L 2766 0 
L 2766 531 
Q 2569 213 2275 61 
Q 1981 -91 1556 -91 
Q 1019 -91 701 211 
Q 384 513 384 1019 
Q 384 1609 779 1909 
Q 1175 2209 1959 2209 
L 2766 2209 
L 2766 2266 
Q 2766 2663 2505 2880 
Q 2244 3097 1772 3097 
Q 1472 3097 1187 3025 
Q 903 2953 641 2809 
L 641 3341 
Q 956 3463 1253 3523 
Q 1550 3584 1831 3584 
Q 2591 3584 2966 3190 
Q 3341 2797 3341 1997 
z
" transform="scale(0.015625)"/>
       </defs>
       <use xlink:href="#DejaVuSans-69"/>
       <use xlink:href="#DejaVuSans-6e" transform="translate(27.783203 0)"/>
       <use xlink:href="#DejaVuSans-74" transform="translate(91.162109 0)"/>
       <use xlink:href="#DejaVuSans-72" transform="translate(130.371094 0)"/>
       <use xlink:href="#DejaVuSans-61" transform="translate(171.484375 0)"/>
      </g>
     </g>
    </g>
   </g>
   <g id="matplotlib.axis_2">
    <g id="ytick_1">
     <g id="line2d_3">
      <defs>
       <path id="maf5dcd49e3" d="M 0 0 
L -3.5 0 
" style="stroke: #000000; stroke-width: 0.8"/>
      </defs>
      <g>
       <use xlink:href="#maf5dcd49e3" x="51.005" y="379.208892" style="stroke: #000000; stroke-width: 0.8"/>
      </g>
     </g>
     <g id="text_3">
      <!-- 0 -->
      <g transform="translate(37.6425 383.00811) scale(0.1 -0.1)">
       <defs>
        <path id="DejaVuSans-30" d="M 2034 4250 
Q 1547 4250 1301 3770 
Q 1056 3291 1056 2328 
Q 1056 1369 1301 889 
Q 1547 409 2034 409 
Q 2525 409 2770 889 
Q 3016 1369 3016 2328 
Q 3016 3291 2770 3770 
Q 2525 4250 2034 4250 
z
M 2034 4750 
Q 2819 4750 3233 4129 
Q 3647 3509 3647 2328 
Q 3647 1150 3233 529 
Q 2819 -91 2034 -91 
Q 1250 -91 836 529 
Q 422 1150 422 2328 
Q 422 3509 836 4129 
Q 1250 4750 2034 4750 
z
" transform="scale(0.015625)"/>
       </defs>
       <use xlink:href="#DejaVuSans-30"/>
      </g>
     </g>
    </g>
    <g id="ytick_2">
     <g id="line2d_4">
      <g>
       <use xlink:href="#maf5dcd49e3" x="51.005" y="303.815704" style="stroke: #000000; stroke-width: 0.8"/>
      </g>
     </g>
     <g id="text_4">
      <!-- 50 -->
      <g transform="translate(31.28 307.614922) scale(0.1 -0.1)">
       <defs>
        <path id="DejaVuSans-35" d="M 691 4666 
L 3169 4666 
L 3169 4134 
L 1269 4134 
L 1269 2991 
Q 1406 3038 1543 3061 
Q 1681 3084 1819 3084 
Q 2600 3084 3056 2656 
Q 3513 2228 3513 1497 
Q 3513 744 3044 326 
Q 2575 -91 1722 -91 
Q 1428 -91 1123 -41 
Q 819 9 494 109 
L 494 744 
Q 775 591 1075 516 
Q 1375 441 1709 441 
Q 2250 441 2565 725 
Q 2881 1009 2881 1497 
Q 2881 1984 2565 2268 
Q 2250 2553 1709 2553 
Q 1456 2553 1204 2497 
Q 953 2441 691 2322 
L 691 4666 
z
" transform="scale(0.015625)"/>
       </defs>
       <use xlink:href="#DejaVuSans-35"/>
       <use xlink:href="#DejaVuSans-30" transform="translate(63.623047 0)"/>
      </g>
     </g>
    </g>
    <g id="ytick_3">
     <g id="line2d_5">
      <g>
       <use xlink:href="#maf5dcd49e3" x="51.005" y="228.422516" style="stroke: #000000; stroke-width: 0.8"/>
      </g>
     </g>
     <g id="text_5">
      <!-- 100 -->
      <g transform="translate(24.9175 232.221735) scale(0.1 -0.1)">
       <defs>
        <path id="DejaVuSans-31" d="M 794 531 
L 1825 531 
L 1825 4091 
L 703 3866 
L 703 4441 
L 1819 4666 
L 2450 4666 
L 2450 531 
L 3481 531 
L 3481 0 
L 794 0 
L 794 531 
z
" transform="scale(0.015625)"/>
       </defs>
       <use xlink:href="#DejaVuSans-31"/>
       <use xlink:href="#DejaVuSans-30" transform="translate(63.623047 0)"/>
       <use xlink:href="#DejaVuSans-30" transform="translate(127.246094 0)"/>
      </g>
     </g>
    </g>
    <g id="ytick_4">
     <g id="line2d_6">
      <g>
       <use xlink:href="#maf5dcd49e3" x="51.005" y="153.029328" style="stroke: #000000; stroke-width: 0.8"/>
      </g>
     </g>
     <g id="text_6">
      <!-- 150 -->
      <g transform="translate(24.9175 156.828547) scale(0.1 -0.1)">
       <use xlink:href="#DejaVuSans-31"/>
       <use xlink:href="#DejaVuSans-35" transform="translate(63.623047 0)"/>
       <use xlink:href="#DejaVuSans-30" transform="translate(127.246094 0)"/>
      </g>
     </g>
    </g>
    <g id="ytick_5">
     <g id="line2d_7">
      <g>
       <use xlink:href="#maf5dcd49e3" x="51.005" y="77.63614" style="stroke: #000000; stroke-width: 0.8"/>
      </g>
     </g>
     <g id="text_7">
      <!-- 200 -->
      <g transform="translate(24.9175 81.435359) scale(0.1 -0.1)">
       <defs>
        <path id="DejaVuSans-32" d="M 1228 531 
L 3431 531 
L 3431 0 
L 469 0 
L 469 531 
Q 828 903 1448 1529 
Q 2069 2156 2228 2338 
Q 2531 2678 2651 2914 
Q 2772 3150 2772 3378 
Q 2772 3750 2511 3984 
Q 2250 4219 1831 4219 
Q 1534 4219 1204 4116 
Q 875 4013 500 3803 
L 500 4441 
Q 881 4594 1212 4672 
Q 1544 4750 1819 4750 
Q 2544 4750 2975 4387 
Q 3406 4025 3406 3419 
Q 3406 3131 3298 2873 
Q 3191 2616 2906 2266 
Q 2828 2175 2409 1742 
Q 1991 1309 1228 531 
z
" transform="scale(0.015625)"/>
       </defs>
       <use xlink:href="#DejaVuSans-32"/>
       <use xlink:href="#DejaVuSans-30" transform="translate(63.623047 0)"/>
       <use xlink:href="#DejaVuSans-30" transform="translate(127.246094 0)"/>
      </g>
     </g>
    </g>
    <g id="text_8">
     <!-- Pairwise Distance -->
     <g transform="translate(18.837813 259.049375) rotate(-90) scale(0.1 -0.1)">
      <defs>
       <path id="DejaVuSans-50" d="M 1259 4147 
L 1259 2394 
L 2053 2394 
Q 2494 2394 2734 2622 
Q 2975 2850 2975 3272 
Q 2975 3691 2734 3919 
Q 2494 4147 2053 4147 
L 1259 4147 
z
M 628 4666 
L 2053 4666 
Q 2838 4666 3239 4311 
Q 3641 3956 3641 3272 
Q 3641 2581 3239 2228 
Q 2838 1875 2053 1875 
L 1259 1875 
L 1259 0 
L 628 0 
L 628 4666 
z
" transform="scale(0.015625)"/>
       <path id="DejaVuSans-77" d="M 269 3500 
L 844 3500 
L 1563 769 
L 2278 3500 
L 2956 3500 
L 3675 769 
L 4391 3500 
L 4966 3500 
L 4050 0 
L 3372 0 
L 2619 2869 
L 1863 0 
L 1184 0 
L 269 3500 
z
" transform="scale(0.015625)"/>
       <path id="DejaVuSans-73" d="M 2834 3397 
L 2834 2853 
Q 2591 2978 2328 3040 
Q 2066 3103 1784 3103 
Q 1356 3103 1142 2972 
Q 928 2841 928 2578 
Q 928 2378 1081 2264 
Q 1234 2150 1697 2047 
L 1894 2003 
Q 2506 1872 2764 1633 
Q 3022 1394 3022 966 
Q 3022 478 2636 193 
Q 2250 -91 1575 -91 
Q 1294 -91 989 -36 
Q 684 19 347 128 
L 347 722 
Q 666 556 975 473 
Q 1284 391 1588 391 
Q 1994 391 2212 530 
Q 2431 669 2431 922 
Q 2431 1156 2273 1281 
Q 2116 1406 1581 1522 
L 1381 1569 
Q 847 1681 609 1914 
Q 372 2147 372 2553 
Q 372 3047 722 3315 
Q 1072 3584 1716 3584 
Q 2034 3584 2315 3537 
Q 2597 3491 2834 3397 
z
" transform="scale(0.015625)"/>
       <path id="DejaVuSans-20" transform="scale(0.015625)"/>
       <path id="DejaVuSans-44" d="M 1259 4147 
L 1259 519 
L 2022 519 
Q 2988 519 3436 956 
Q 3884 1394 3884 2338 
Q 3884 3275 3436 3711 
Q 2988 4147 2022 4147 
L 1259 4147 
z
M 628 4666 
L 1925 4666 
Q 3281 4666 3915 4102 
Q 4550 3538 4550 2338 
Q 4550 1131 3912 565 
Q 3275 0 1925 0 
L 628 0 
L 628 4666 
z
" transform="scale(0.015625)"/>
       <path id="DejaVuSans-63" d="M 3122 3366 
L 3122 2828 
Q 2878 2963 2633 3030 
Q 2388 3097 2138 3097 
Q 1578 3097 1268 2742 
Q 959 2388 959 1747 
Q 959 1106 1268 751 
Q 1578 397 2138 397 
Q 2388 397 2633 464 
Q 2878 531 3122 666 
L 3122 134 
Q 2881 22 2623 -34 
Q 2366 -91 2075 -91 
Q 1284 -91 818 406 
Q 353 903 353 1747 
Q 353 2603 823 3093 
Q 1294 3584 2113 3584 
Q 2378 3584 2631 3529 
Q 2884 3475 3122 3366 
z
" transform="scale(0.015625)"/>
      </defs>
      <use xlink:href="#DejaVuSans-50"/>
      <use xlink:href="#DejaVuSans-61" transform="translate(55.802734 0)"/>
      <use xlink:href="#DejaVuSans-69" transform="translate(117.082031 0)"/>
      <use xlink:href="#DejaVuSans-72" transform="translate(144.865234 0)"/>
      <use xlink:href="#DejaVuSans-77" transform="translate(185.978516 0)"/>
      <use xlink:href="#DejaVuSans-69" transform="translate(267.765625 0)"/>
      <use xlink:href="#DejaVuSans-73" transform="translate(295.548828 0)"/>
      <use xlink:href="#DejaVuSans-65" transform="translate(347.648438 0)"/>
      <use xlink:href="#DejaVuSans-20" transform="translate(409.171875 0)"/>
      <use xlink:href="#DejaVuSans-44" transform="translate(440.958984 0)"/>
      <use xlink:href="#DejaVuSans-69" transform="translate(517.960938 0)"/>
      <use xlink:href="#DejaVuSans-73" transform="translate(545.744141 0)"/>
      <use xlink:href="#DejaVuSans-74" transform="translate(597.84375 0)"/>
      <use xlink:href="#DejaVuSans-61" transform="translate(637.052734 0)"/>
      <use xlink:href="#DejaVuSans-6e" transform="translate(698.332031 0)"/>
      <use xlink:href="#DejaVuSans-63" transform="translate(761.710938 0)"/>
      <use xlink:href="#DejaVuSans-65" transform="translate(816.691406 0)"/>
     </g>
    </g>
   </g>
   <g id="line2d_8">
    <path d="M 143.55375 379.208811 
L 143.55375 54.558734 
" clip-path="url(#pd1ef625e12)" style="fill: none; stroke: #3f3f3f; stroke-width: 1.875; stroke-linecap: square"/>
   </g>
   <g id="line2d_9">
    <path d="M 143.55375 332.304553 
L 143.55375 221.197696 
" clip-path="url(#pd1ef625e12)" style="fill: none; stroke: #3f3f3f; stroke-width: 5.625; stroke-linecap: square"/>
   </g>
   <g id="line2d_10">
    <path d="M 143.55375 282.552887 
" clip-path="url(#pd1ef625e12)" style="fill: none; stroke: #3f3f3f; stroke-width: 1.5; stroke-linecap: square"/>
    <defs>
     <path id="m4b1debbd3b" d="M 2.34375 0 
L -2.34375 -0 
" style="stroke: #ffffff; stroke-width: 1.125"/>
    </defs>
    <g clip-path="url(#pd1ef625e12)">
     <use xlink:href="#m4b1debbd3b" x="143.55375" y="282.552887" style="fill: #ffffff; stroke: #ffffff; stroke-width: 1.125"/>
    </g>
   </g>
   <g id="line2d_11">
    <path d="M 328.65125 379.20869 
L 328.65125 144.154506 
" clip-path="url(#pd1ef625e12)" style="fill: none; stroke: #3f3f3f; stroke-width: 1.875; stroke-linecap: square"/>
   </g>
   <g id="line2d_12">
    <path d="M 328.65125 350.215565 
L 328.65125 267.79039 
" clip-path="url(#pd1ef625e12)" style="fill: none; stroke: #3f3f3f; stroke-width: 5.625; stroke-linecap: square"/>
   </g>
   <g id="line2d_13">
    <path d="M 328.65125 315.488177 
" clip-path="url(#pd1ef625e12)" style="fill: none; stroke: #3f3f3f; stroke-width: 1.5; stroke-linecap: square"/>
    <g clip-path="url(#pd1ef625e12)">
     <use xlink:href="#m4b1debbd3b" x="328.65125" y="315.488177" style="fill: #ffffff; stroke: #ffffff; stroke-width: 1.125"/>
    </g>
   </g>
   <g id="patch_3">
    <path d="M 51.005 404.12 
L 51.005 26.16 
" style="fill: none; stroke: #000000; stroke-width: 0.8; stroke-linejoin: miter; stroke-linecap: square"/>
   </g>
   <g id="patch_4">
    <path d="M 421.2 404.12 
L 421.2 26.16 
" style="fill: none; stroke: #000000; stroke-width: 0.8; stroke-linejoin: miter; stroke-linecap: square"/>
   </g>
   <g id="patch_5">
    <path d="M 51.005 404.12 
L 421.2 404.12 
" style="fill: none; stroke: #000000; stroke-width: 0.8; stroke-linejoin: miter; stroke-linecap: square"/>
   </g>
   <g id="patch_6">
    <path d="M 51.005 26.16 
L 421.2 26.16 
" style="fill: none; stroke: #000000; stroke-width: 0.8; stroke-linejoin: miter; stroke-linecap: square"/>
   </g>
   <g id="text_9">
    <!-- SOAP - TSNE (1D) Distances -->
    <g transform="translate(151.927188 20.16) scale(0.12 -0.12)">
     <defs>
      <path id="DejaVuSans-53" d="M 3425 4513 
L 3425 3897 
Q 3066 4069 2747 4153 
Q 2428 4238 2131 4238 
Q 1616 4238 1336 4038 
Q 1056 3838 1056 3469 
Q 1056 3159 1242 3001 
Q 1428 2844 1947 2747 
L 2328 2669 
Q 3034 2534 3370 2195 
Q 3706 1856 3706 1288 
Q 3706 609 3251 259 
Q 2797 -91 1919 -91 
Q 1588 -91 1214 -16 
Q 841 59 441 206 
L 441 856 
Q 825 641 1194 531 
Q 1563 422 1919 422 
Q 2459 422 2753 634 
Q 3047 847 3047 1241 
Q 3047 1584 2836 1778 
Q 2625 1972 2144 2069 
L 1759 2144 
Q 1053 2284 737 2584 
Q 422 2884 422 3419 
Q 422 4038 858 4394 
Q 1294 4750 2059 4750 
Q 2388 4750 2728 4690 
Q 3069 4631 3425 4513 
z
" transform="scale(0.015625)"/>
      <path id="DejaVuSans-4f" d="M 2522 4238 
Q 1834 4238 1429 3725 
Q 1025 3213 1025 2328 
Q 1025 1447 1429 934 
Q 1834 422 2522 422 
Q 3209 422 3611 934 
Q 4013 1447 4013 2328 
Q 4013 3213 3611 3725 
Q 3209 4238 2522 4238 
z
M 2522 4750 
Q 3503 4750 4090 4092 
Q 4678 3434 4678 2328 
Q 4678 1225 4090 567 
Q 3503 -91 2522 -91 
Q 1538 -91 948 565 
Q 359 1222 359 2328 
Q 359 3434 948 4092 
Q 1538 4750 2522 4750 
z
" transform="scale(0.015625)"/>
      <path id="DejaVuSans-41" d="M 2188 4044 
L 1331 1722 
L 3047 1722 
L 2188 4044 
z
M 1831 4666 
L 2547 4666 
L 4325 0 
L 3669 0 
L 3244 1197 
L 1141 1197 
L 716 0 
L 50 0 
L 1831 4666 
z
" transform="scale(0.015625)"/>
      <path id="DejaVuSans-2d" d="M 313 2009 
L 1997 2009 
L 1997 1497 
L 313 1497 
L 313 2009 
z
" transform="scale(0.015625)"/>
      <path id="DejaVuSans-54" d="M -19 4666 
L 3928 4666 
L 3928 4134 
L 2272 4134 
L 2272 0 
L 1638 0 
L 1638 4134 
L -19 4134 
L -19 4666 
z
" transform="scale(0.015625)"/>
      <path id="DejaVuSans-4e" d="M 628 4666 
L 1478 4666 
L 3547 763 
L 3547 4666 
L 4159 4666 
L 4159 0 
L 3309 0 
L 1241 3903 
L 1241 0 
L 628 0 
L 628 4666 
z
" transform="scale(0.015625)"/>
      <path id="DejaVuSans-45" d="M 628 4666 
L 3578 4666 
L 3578 4134 
L 1259 4134 
L 1259 2753 
L 3481 2753 
L 3481 2222 
L 1259 2222 
L 1259 531 
L 3634 531 
L 3634 0 
L 628 0 
L 628 4666 
z
" transform="scale(0.015625)"/>
      <path id="DejaVuSans-28" d="M 1984 4856 
Q 1566 4138 1362 3434 
Q 1159 2731 1159 2009 
Q 1159 1288 1364 580 
Q 1569 -128 1984 -844 
L 1484 -844 
Q 1016 -109 783 600 
Q 550 1309 550 2009 
Q 550 2706 781 3412 
Q 1013 4119 1484 4856 
L 1984 4856 
z
" transform="scale(0.015625)"/>
      <path id="DejaVuSans-29" d="M 513 4856 
L 1013 4856 
Q 1481 4119 1714 3412 
Q 1947 2706 1947 2009 
Q 1947 1309 1714 600 
Q 1481 -109 1013 -844 
L 513 -844 
Q 928 -128 1133 580 
Q 1338 1288 1338 2009 
Q 1338 2731 1133 3434 
Q 928 4138 513 4856 
z
" transform="scale(0.015625)"/>
     </defs>
     <use xlink:href="#DejaVuSans-53"/>
     <use xlink:href="#DejaVuSans-4f" transform="translate(63.476562 0)"/>
     <use xlink:href="#DejaVuSans-41" transform="translate(140.4375 0)"/>
     <use xlink:href="#DejaVuSans-50" transform="translate(208.845703 0)"/>
     <use xlink:href="#DejaVuSans-20" transform="translate(269.148438 0)"/>
     <use xlink:href="#DejaVuSans-2d" transform="translate(300.935547 0)"/>
     <use xlink:href="#DejaVuSans-20" transform="translate(337.019531 0)"/>
     <use xlink:href="#DejaVuSans-54" transform="translate(368.806641 0)"/>
     <use xlink:href="#DejaVuSans-53" transform="translate(429.890625 0)"/>
     <use xlink:href="#DejaVuSans-4e" transform="translate(493.367188 0)"/>
     <use xlink:href="#DejaVuSans-45" transform="translate(568.171875 0)"/>
     <use xlink:href="#DejaVuSans-20" transform="translate(631.355469 0)"/>
     <use xlink:href="#DejaVuSans-28" transform="translate(663.142578 0)"/>
     <use xlink:href="#DejaVuSans-31" transform="translate(702.15625 0)"/>
     <use xlink:href="#DejaVuSans-44" transform="translate(765.779297 0)"/>
     <use xlink:href="#DejaVuSans-29" transform="translate(842.78125 0)"/>
     <use xlink:href="#DejaVuSans-20" transform="translate(881.794922 0)"/>
     <use xlink:href="#DejaVuSans-44" transform="translate(913.582031 0)"/>
     <use xlink:href="#DejaVuSans-69" transform="translate(990.583984 0)"/>
     <use xlink:href="#DejaVuSans-73" transform="translate(1018.367188 0)"/>
     <use xlink:href="#DejaVuSans-74" transform="translate(1070.466797 0)"/>
     <use xlink:href="#DejaVuSans-61" transform="translate(1109.675781 0)"/>
     <use xlink:href="#DejaVuSans-6e" transform="translate(1170.955078 0)"/>
     <use xlink:href="#DejaVuSans-63" transform="translate(1234.333984 0)"/>
     <use xlink:href="#DejaVuSans-65" transform="translate(1289.314453 0)"/>
     <use xlink:href="#DejaVuSans-73" transform="translate(1350.837891 0)"/>
    </g>
   </g>
  </g>
 </g>
 <defs>
  <clipPath id="pd1ef625e12">
   <rect x="51.005" y="26.16" width="370.195" height="377.96"/>
  </clipPath>
 </defs>
</svg>
