<?xml version="1.0" encoding="utf-8" standalone="no"?>
<!DOCTYPE svg PUBLIC "-//W3C//DTD SVG 1.1//EN"
  "http://www.w3.org/Graphics/SVG/1.1/DTD/svg11.dtd">
<svg xmlns:xlink="http://www.w3.org/1999/xlink" width="432pt" height="432pt" viewBox="0 0 432 432" xmlns="http://www.w3.org/2000/svg" version="1.1">
 <metadata>
  <rdf:RDF xmlns:dc="http://purl.org/dc/elements/1.1/" xmlns:cc="http://creativecommons.org/ns#" xmlns:rdf="http://www.w3.org/1999/02/22-rdf-syntax-ns#">
   <cc:Work>
    <dc:type rdf:resource="http://purl.org/dc/dcmitype/StillImage"/>
    <dc:date>2026-02-17T17:01:53.593438</dc:date>
    <dc:format>image/svg+xml</dc:format>
    <dc:creator>
     <cc:Agent>
      <dc:title>Matplotlib v3.10.3, https://matplotlib.org/</dc:title>
     </cc:Agent>
    </dc:creator>
   </cc:Work>
  </rdf:RDF>
 </metadata>
 <defs>
  <style type="text/css">*{stroke-linejoin: round; stroke-linecap: butt}</style>
 </defs>
 <g id="figure_1">
  <g id="patch_1">
   <path d="M 0 432 
L 432 432 
L 432 0 
L 0 0 
z
" style="fill: #ffffff"/>
  </g>
  <g id="axes_1">
   <g id="patch_2">
    <path d="M 44.66 404.12 
L 421.2 404.12 
L 421.2 26.16 
L 44.66 26.16 
z
" style="fill: #ffffff"/>
   </g>
   <g id="FillBetweenPolyCollection_1">
    <defs>
     <path id="me438fd1f82" d="M 138.801695 -45.40959 
L 138.788305 -45.40959 
L 138.705806 -48.876765 
L 138.434307 -52.343941 
L 138.039791 -55.811117 
L 137.542006 -59.278293 
L 136.831487 -62.745469 
L 135.870072 -66.212645 
L 134.744771 -69.679821 
L 133.645566 -73.146996 
L 132.534567 -76.614172 
L 131.264723 -80.081348 
L 129.932632 -83.548524 
L 128.486414 -87.0157 
L 126.837857 -90.482876 
L 125.189901 -93.950052 
L 123.674981 -97.417227 
L 122.102986 -100.884403 
L 120.22173 -104.351579 
L 118.154176 -107.818755 
L 115.890776 -111.285931 
L 113.322565 -114.753107 
L 110.970519 -118.220283 
L 108.946699 -121.687459 
L 106.235797 -125.154634 
L 103.072649 -128.62181 
L 99.811623 -132.088986 
L 97.189319 -135.556162 
L 94.746178 -139.023338 
L 91.789311 -142.490514 
L 88.61287 -145.95769 
L 85.219313 -149.424865 
L 82.393876 -152.892041 
L 80.142601 -156.359217 
L 77.787937 -159.826393 
L 75.463411 -163.293569 
L 73.487505 -166.760745 
L 71.465581 -170.227921 
L 69.652809 -173.695096 
L 68.425554 -177.162272 
L 67.452181 -180.629448 
L 66.706949 -184.096624 
L 65.553747 -187.5638 
L 64.534247 -191.030976 
L 64.201886 -194.498152 
L 64.023852 -197.965328 
L 63.567372 -201.432503 
L 63.487 -204.899679 
L 64.739568 -208.366855 
L 66.252024 -211.834031 
L 67.580239 -215.301207 
L 69.211275 -218.768383 
L 70.965246 -222.235559 
L 72.813211 -225.702734 
L 75.416643 -229.16991 
L 78.683798 -232.637086 
L 82.015108 -236.104262 
L 85.200492 -239.571438 
L 88.531358 -243.038614 
L 91.869254 -246.50579 
L 95.66136 -249.972965 
L 99.478762 -253.440141 
L 102.676572 -256.907317 
L 106.111755 -260.374493 
L 110.098364 -263.841669 
L 113.666502 -267.308845 
L 116.800347 -270.776021 
L 119.890136 -274.243197 
L 122.509708 -277.710372 
L 124.869065 -281.177548 
L 126.878783 -284.644724 
L 128.618771 -288.1119 
L 130.135071 -291.579076 
L 131.348139 -295.046252 
L 132.491787 -298.513428 
L 133.511483 -301.980603 
L 134.359715 -305.447779 
L 135.173008 -308.914955 
L 135.826679 -312.382131 
L 136.320625 -315.849307 
L 136.782949 -319.316483 
L 137.162407 -322.783659 
L 137.444638 -326.250834 
L 137.642966 -329.71801 
L 137.842347 -333.185186 
L 137.984515 -336.652362 
L 138.104261 -340.119538 
L 138.240271 -343.586714 
L 138.360676 -347.05389 
L 138.446617 -350.521066 
L 138.512684 -353.988241 
L 138.553193 -357.455417 
L 138.584355 -360.922593 
L 138.62266 -364.389769 
L 138.657317 -367.856945 
L 138.681626 -371.324121 
L 138.720497 -374.791297 
L 138.752121 -378.258472 
L 138.773836 -381.725648 
L 138.789694 -385.192824 
L 138.794571 -388.66 
L 138.795429 -388.66 
L 138.795429 -388.66 
L 138.800306 -385.192824 
L 138.816164 -381.725648 
L 138.837879 -378.258472 
L 138.869503 -374.791297 
L 138.908374 -371.324121 
L 138.932683 -367.856945 
L 138.96734 -364.389769 
L 139.005645 -360.922593 
L 139.036807 -357.455417 
L 139.077316 -353.988241 
L 139.143383 -350.521066 
L 139.229324 -347.05389 
L 139.349729 -343.586714 
L 139.485739 -340.119538 
L 139.605485 -336.652362 
L 139.747653 -333.185186 
L 139.947034 -329.71801 
L 140.145362 -326.250834 
L 140.427593 -322.783659 
L 140.807051 -319.316483 
L 141.269375 -315.849307 
L 141.763321 -312.382131 
L 142.416992 -308.914955 
L 143.230285 -305.447779 
L 144.078517 -301.980603 
L 145.098213 -298.513428 
L 146.241861 -295.046252 
L 147.454929 -291.579076 
L 148.971229 -288.1119 
L 150.711217 -284.644724 
L 152.720935 -281.177548 
L 155.080292 -277.710372 
L 157.699864 -274.243197 
L 160.789653 -270.776021 
L 163.923498 -267.308845 
L 167.491636 -263.841669 
L 171.478245 -260.374493 
L 174.913428 -256.907317 
L 178.111238 -253.440141 
L 181.92864 -249.972965 
L 185.720746 -246.50579 
L 189.058642 -243.038614 
L 192.389508 -239.571438 
L 195.574892 -236.104262 
L 198.906202 -232.637086 
L 202.173357 -229.16991 
L 204.776789 -225.702734 
L 206.624754 -222.235559 
L 208.378725 -218.768383 
L 210.009761 -215.301207 
L 211.337976 -211.834031 
L 212.850432 -208.366855 
L 214.103 -204.899679 
L 214.022628 -201.432503 
L 213.566148 -197.965328 
L 213.388114 -194.498152 
L 213.055753 -191.030976 
L 212.036253 -187.5638 
L 210.883051 -184.096624 
L 210.137819 -180.629448 
L 209.164446 -177.162272 
L 207.937191 -173.695096 
L 206.124419 -170.227921 
L 204.102495 -166.760745 
L 202.126589 -163.293569 
L 199.802063 -159.826393 
L 197.447399 -156.359217 
L 195.196124 -152.892041 
L 192.370687 -149.424865 
L 188.97713 -145.95769 
L 185.800689 -142.490514 
L 182.843822 -139.023338 
L 180.400681 -135.556162 
L 177.778377 -132.088986 
L 174.517351 -128.62181 
L 171.354203 -125.154634 
L 168.643301 -121.687459 
L 166.619481 -118.220283 
L 164.267435 -114.753107 
L 161.699224 -111.285931 
L 159.435824 -107.818755 
L 157.36827 -104.351579 
L 155.487014 -100.884403 
L 153.915019 -97.417227 
L 152.400099 -93.950052 
L 150.752143 -90.482876 
L 149.103586 -87.0157 
L 147.657368 -83.548524 
L 146.325277 -80.081348 
L 145.055433 -76.614172 
L 143.944434 -73.146996 
L 142.845229 -69.679821 
L 141.719928 -66.212645 
L 140.758513 -62.745469 
L 140.047994 -59.278293 
L 139.550209 -55.811117 
L 139.155693 -52.343941 
L 138.884194 -48.876765 
L 138.801695 -45.40959 
z
" style="stroke: #3f3f3f; stroke-width: 1.25"/>
    </defs>
    <g clip-path="url(#pa3b1fca480)">
     <use xlink:href="#me438fd1f82" x="0" y="432" style="fill: #e1812c; stroke: #3f3f3f; stroke-width: 1.25"/>
    </g>
   </g>
   <g id="FillBetweenPolyCollection_2">
    <defs>
     <path id="me998c45932" d="M 327.101751 -45.06 
L 327.028249 -45.06 
L 326.722498 -48.149873 
L 325.788047 -51.239746 
L 324.473159 -54.32962 
L 322.905143 -57.419493 
L 320.838087 -60.509366 
L 318.234818 -63.599239 
L 315.015929 -66.689113 
L 311.347723 -69.778986 
L 307.209641 -72.868859 
L 302.668627 -75.958732 
L 298.020777 -79.048606 
L 293.298764 -82.138479 
L 288.499814 -85.228352 
L 284.000959 -88.318225 
L 279.959223 -91.408099 
L 276.052341 -94.497972 
L 272.438396 -97.587845 
L 269.124627 -100.677718 
L 266.010987 -103.767592 
L 263.309136 -106.857465 
L 260.578074 -109.947338 
L 257.903762 -113.037211 
L 255.751064 -116.127085 
L 254.055913 -119.216958 
L 252.730424 -122.306831 
L 251.961893 -125.396704 
L 251.757 -128.486578 
L 252.009806 -131.576451 
L 252.784074 -134.666324 
L 254.464131 -137.756197 
L 256.320051 -140.846071 
L 258.117894 -143.935944 
L 260.611933 -147.025817 
L 263.43902 -150.11569 
L 266.331418 -153.205564 
L 269.504444 -156.295437 
L 273.034888 -159.38531 
L 276.933046 -162.475183 
L 280.815941 -165.565056 
L 284.631462 -168.65493 
L 288.14468 -171.744803 
L 291.178755 -174.834676 
L 294.088008 -177.924549 
L 296.88381 -181.014423 
L 299.353749 -184.104296 
L 301.613373 -187.194169 
L 303.799843 -190.284042 
L 305.455712 -193.373916 
L 306.576426 -196.463789 
L 307.605395 -199.553662 
L 308.672804 -202.643535 
L 309.986668 -205.733409 
L 311.310765 -208.823282 
L 312.303987 -211.913155 
L 313.029811 -215.003028 
L 313.834443 -218.092902 
L 314.821839 -221.182775 
L 315.791648 -224.272648 
L 316.746937 -227.362521 
L 317.609441 -230.452395 
L 318.408219 -233.542268 
L 319.197109 -236.632141 
L 319.956246 -239.722014 
L 320.602995 -242.811888 
L 321.165022 -245.901761 
L 321.840854 -248.991634 
L 322.453832 -252.081507 
L 322.969616 -255.171381 
L 323.46568 -258.261254 
L 323.934239 -261.351127 
L 324.393734 -264.441 
L 324.759127 -267.530874 
L 325.060813 -270.620747 
L 325.326798 -273.71062 
L 325.520834 -276.800493 
L 325.668072 -279.890367 
L 325.817646 -282.98024 
L 325.977034 -286.070113 
L 326.151755 -289.159986 
L 326.292167 -292.249859 
L 326.385032 -295.339733 
L 326.4258 -298.429606 
L 326.458706 -301.519479 
L 326.567234 -304.609352 
L 326.708852 -307.699226 
L 326.802496 -310.789099 
L 326.86234 -313.878972 
L 326.912939 -316.968845 
L 326.96025 -320.058719 
L 326.997201 -323.148592 
L 327.012618 -326.238465 
L 327.016626 -329.328338 
L 327.021215 -332.418212 
L 327.023608 -335.508085 
L 327.022194 -338.597958 
L 327.029634 -341.687831 
L 327.047094 -344.777705 
L 327.060058 -347.867578 
L 327.064399 -350.957451 
L 327.065601 -350.957451 
L 327.065601 -350.957451 
L 327.069942 -347.867578 
L 327.082906 -344.777705 
L 327.100366 -341.687831 
L 327.107806 -338.597958 
L 327.106392 -335.508085 
L 327.108785 -332.418212 
L 327.113374 -329.328338 
L 327.117382 -326.238465 
L 327.132799 -323.148592 
L 327.16975 -320.058719 
L 327.217061 -316.968845 
L 327.26766 -313.878972 
L 327.327504 -310.789099 
L 327.421148 -307.699226 
L 327.562766 -304.609352 
L 327.671294 -301.519479 
L 327.7042 -298.429606 
L 327.744968 -295.339733 
L 327.837833 -292.249859 
L 327.978245 -289.159986 
L 328.152966 -286.070113 
L 328.312354 -282.98024 
L 328.461928 -279.890367 
L 328.609166 -276.800493 
L 328.803202 -273.71062 
L 329.069187 -270.620747 
L 329.370873 -267.530874 
L 329.736266 -264.441 
L 330.195761 -261.351127 
L 330.66432 -258.261254 
L 331.160384 -255.171381 
L 331.676168 -252.081507 
L 332.289146 -248.991634 
L 332.964978 -245.901761 
L 333.527005 -242.811888 
L 334.173754 -239.722014 
L 334.932891 -236.632141 
L 335.721781 -233.542268 
L 336.520559 -230.452395 
L 337.383063 -227.362521 
L 338.338352 -224.272648 
L 339.308161 -221.182775 
L 340.295557 -218.092902 
L 341.100189 -215.003028 
L 341.826013 -211.913155 
L 342.819235 -208.823282 
L 344.143332 -205.733409 
L 345.457196 -202.643535 
L 346.524605 -199.553662 
L 347.553574 -196.463789 
L 348.674288 -193.373916 
L 350.330157 -190.284042 
L 352.516627 -187.194169 
L 354.776251 -184.104296 
L 357.24619 -181.014423 
L 360.041992 -177.924549 
L 362.951245 -174.834676 
L 365.98532 -171.744803 
L 369.498538 -168.65493 
L 373.314059 -165.565056 
L 377.196954 -162.475183 
L 381.095112 -159.38531 
L 384.625556 -156.295437 
L 387.798582 -153.205564 
L 390.69098 -150.11569 
L 393.518067 -147.025817 
L 396.012106 -143.935944 
L 397.809949 -140.846071 
L 399.665869 -137.756197 
L 401.345926 -134.666324 
L 402.120194 -131.576451 
L 402.373 -128.486578 
L 402.168107 -125.396704 
L 401.399576 -122.306831 
L 400.074087 -119.216958 
L 398.378936 -116.127085 
L 396.226238 -113.037211 
L 393.551926 -109.947338 
L 390.820864 -106.857465 
L 388.119013 -103.767592 
L 385.005373 -100.677718 
L 381.691604 -97.587845 
L 378.077659 -94.497972 
L 374.170777 -91.408099 
L 370.129041 -88.318225 
L 365.630186 -85.228352 
L 360.831236 -82.138479 
L 356.109223 -79.048606 
L 351.461373 -75.958732 
L 346.920359 -72.868859 
L 342.782277 -69.778986 
L 339.114071 -66.689113 
L 335.895182 -63.599239 
L 333.291913 -60.509366 
L 331.224857 -57.419493 
L 329.656841 -54.32962 
L 328.341953 -51.239746 
L 327.407502 -48.149873 
L 327.101751 -45.06 
z
" style="stroke: #3f3f3f; stroke-width: 1.25"/>
    </defs>
    <g clip-path="url(#pa3b1fca480)">
     <use xlink:href="#me998c45932" x="0" y="432" style="fill: #3274a1; stroke: #3f3f3f; stroke-width: 1.25"/>
    </g>
   </g>
   <g id="matplotlib.axis_1">
    <g id="xtick_1">
     <g id="line2d_1">
      <defs>
       <path id="mc6ee6b2ed8" d="M 0 0 
L 0 3.5 
" style="stroke: #000000; stroke-width: 0.8"/>
      </defs>
      <g>
       <use xlink:href="#mc6ee6b2ed8" x="138.795" y="404.12" style="stroke: #000000; stroke-width: 0.8"/>
      </g>
     </g>
     <g id="text_1">
      <!-- inter -->
      <g transform="translate(127.145 418.718437) scale(0.1 -0.1)">
       <defs>
        <path id="DejaVuSans-69" d="M 603 3500 
L 1178 3500 
L 1178 0 
L 603 0 
L 603 3500 
z
M 603 4863 
L 1178 4863 
L 1178 4134 
L 603 4134 
L 603 4863 
z
" transform="scale(0.015625)"/>
        <path id="DejaVuSans-6e" d="M 3513 2113 
L 3513 0 
L 2938 0 
L 2938 2094 
Q 2938 2591 2744 2837 
Q 2550 3084 2163 3084 
Q 1697 3084 1428 2787 
Q 1159 2491 1159 1978 
L 1159 0 
L 581 0 
L 581 3500 
L 1159 3500 
L 1159 2956 
Q 1366 3272 1645 3428 
Q 1925 3584 2291 3584 
Q 2894 3584 3203 3211 
Q 3513 2838 3513 2113 
z
" transform="scale(0.015625)"/>
        <path id="DejaVuSans-74" d="M 1172 4494 
L 1172 3500 
L 2356 3500 
L 2356 3053 
L 1172 3053 
L 1172 1153 
Q 1172 725 1289 603 
Q 1406 481 1766 481 
L 2356 481 
L 2356 0 
L 1766 0 
Q 1100 0 847 248 
Q 594 497 594 1153 
L 594 3053 
L 172 3053 
L 172 3500 
L 594 3500 
L 594 4494 
L 1172 4494 
z
" transform="scale(0.015625)"/>
        <path id="DejaVuSans-65" d="M 3597 1894 
L 3597 1613 
L 953 1613 
Q 991 1019 1311 708 
Q 1631 397 2203 397 
Q 2534 397 2845 478 
Q 3156 559 3463 722 
L 3463 178 
Q 3153 47 2828 -22 
Q 2503 -91 2169 -91 
Q 1331 -91 842 396 
Q 353 884 353 1716 
Q 353 2575 817 3079 
Q 1281 3584 2069 3584 
Q 2775 3584 3186 3129 
Q 3597 2675 3597 1894 
z
M 3022 2063 
Q 3016 2534 2758 2815 
Q 2500 3097 2075 3097 
Q 1594 3097 1305 2825 
Q 1016 2553 972 2059 
L 3022 2063 
z
" transform="scale(0.015625)"/>
        <path id="DejaVuSans-72" d="M 2631 2963 
Q 2534 3019 2420 3045 
Q 2306 3072 2169 3072 
Q 1681 3072 1420 2755 
Q 1159 2438 1159 1844 
L 1159 0 
L 581 0 
L 581 3500 
L 1159 3500 
L 1159 2956 
Q 1341 3275 1631 3429 
Q 1922 3584 2338 3584 
Q 2397 3584 2469 3576 
Q 2541 3569 2628 3553 
L 2631 2963 
z
" transform="scale(0.015625)"/>
       </defs>
       <use xlink:href="#DejaVuSans-69"/>
       <use xlink:href="#DejaVuSans-6e" transform="translate(27.783203 0)"/>
       <use xlink:href="#DejaVuSans-74" transform="translate(91.162109 0)"/>
       <use xlink:href="#DejaVuSans-65" transform="translate(130.371094 0)"/>
       <use xlink:href="#DejaVuSans-72" transform="translate(191.894531 0)"/>
      </g>
     </g>
    </g>
    <g id="xtick_2">
     <g id="line2d_2">
      <g>
       <use xlink:href="#mc6ee6b2ed8" x="327.065" y="404.12" style="stroke: #000000; stroke-width: 0.8"/>
      </g>
     </g>
     <g id="text_2">
      <!-- intra -->
      <g transform="translate(315.4275 418.718437) scale(0.1 -0.1)">
       <defs>
        <path id="DejaVuSans-61" d="M 2194 1759 
Q 1497 1759 1228 1600 
Q 959 1441 959 1056 
Q 959 750 1161 570 
Q 1363 391 1709 391 
Q 2188 391 2477 730 
Q 2766 1069 2766 1631 
L 2766 1759 
L 2194 1759 
z
M 3341 1997 
L 3341 0 
L 2766 0 
L 2766 531 
Q 2569 213 2275 61 
Q 1981 -91 1556 -91 
Q 1019 -91 701 211 
Q 384 513 384 1019 
Q 384 1609 779 1909 
Q 1175 2209 1959 2209 
L 2766 2209 
L 2766 2266 
Q 2766 2663 2505 2880 
Q 2244 3097 1772 3097 
Q 1472 3097 1187 3025 
Q 903 2953 641 2809 
L 641 3341 
Q 956 3463 1253 3523 
Q 1550 3584 1831 3584 
Q 2591 3584 2966 3190 
Q 3341 2797 3341 1997 
z
" transform="scale(0.015625)"/>
       </defs>
       <use xlink:href="#DejaVuSans-69"/>
       <use xlink:href="#DejaVuSans-6e" transform="translate(27.783203 0)"/>
       <use xlink:href="#DejaVuSans-74" transform="translate(91.162109 0)"/>
       <use xlink:href="#DejaVuSans-72" transform="translate(130.371094 0)"/>
       <use xlink:href="#DejaVuSans-61" transform="translate(171.484375 0)"/>
      </g>
     </g>
    </g>
   </g>
   <g id="matplotlib.axis_2">
    <g id="ytick_1">
     <g id="line2d_3">
      <defs>
       <path id="mff4e2c4bad" d="M 0 0 
L -3.5 0 
" style="stroke: #000000; stroke-width: 0.8"/>
      </defs>
      <g>
       <use xlink:href="#mff4e2c4bad" x="44.66" y="381.425909" style="stroke: #000000; stroke-width: 0.8"/>
      </g>
     </g>
     <g id="text_3">
      <!-- 0 -->
      <g transform="translate(31.2975 385.225127) scale(0.1 -0.1)">
       <defs>
        <path id="DejaVuSans-30" d="M 2034 4250 
Q 1547 4250 1301 3770 
Q 1056 3291 1056 2328 
Q 1056 1369 1301 889 
Q 1547 409 2034 409 
Q 2525 409 2770 889 
Q 3016 1369 3016 2328 
Q 3016 3291 2770 3770 
Q 2525 4250 2034 4250 
z
M 2034 4750 
Q 2819 4750 3233 4129 
Q 3647 3509 3647 2328 
Q 3647 1150 3233 529 
Q 2819 -91 2034 -91 
Q 1250 -91 836 529 
Q 422 1150 422 2328 
Q 422 3509 836 4129 
Q 1250 4750 2034 4750 
z
" transform="scale(0.015625)"/>
       </defs>
       <use xlink:href="#DejaVuSans-30"/>
      </g>
     </g>
    </g>
    <g id="ytick_2">
     <g id="line2d_4">
      <g>
       <use xlink:href="#mff4e2c4bad" x="44.66" y="328.960894" style="stroke: #000000; stroke-width: 0.8"/>
      </g>
     </g>
     <g id="text_4">
      <!-- 10 -->
      <g transform="translate(24.935 332.760113) scale(0.1 -0.1)">
       <defs>
        <path id="DejaVuSans-31" d="M 794 531 
L 1825 531 
L 1825 4091 
L 703 3866 
L 703 4441 
L 1819 4666 
L 2450 4666 
L 2450 531 
L 3481 531 
L 3481 0 
L 794 0 
L 794 531 
z
" transform="scale(0.015625)"/>
       </defs>
       <use xlink:href="#DejaVuSans-31"/>
       <use xlink:href="#DejaVuSans-30" transform="translate(63.623047 0)"/>
      </g>
     </g>
    </g>
    <g id="ytick_3">
     <g id="line2d_5">
      <g>
       <use xlink:href="#mff4e2c4bad" x="44.66" y="276.495879" style="stroke: #000000; stroke-width: 0.8"/>
      </g>
     </g>
     <g id="text_5">
      <!-- 20 -->
      <g transform="translate(24.935 280.295098) scale(0.1 -0.1)">
       <defs>
        <path id="DejaVuSans-32" d="M 1228 531 
L 3431 531 
L 3431 0 
L 469 0 
L 469 531 
Q 828 903 1448 1529 
Q 2069 2156 2228 2338 
Q 2531 2678 2651 2914 
Q 2772 3150 2772 3378 
Q 2772 3750 2511 3984 
Q 2250 4219 1831 4219 
Q 1534 4219 1204 4116 
Q 875 4013 500 3803 
L 500 4441 
Q 881 4594 1212 4672 
Q 1544 4750 1819 4750 
Q 2544 4750 2975 4387 
Q 3406 4025 3406 3419 
Q 3406 3131 3298 2873 
Q 3191 2616 2906 2266 
Q 2828 2175 2409 1742 
Q 1991 1309 1228 531 
z
" transform="scale(0.015625)"/>
       </defs>
       <use xlink:href="#DejaVuSans-32"/>
       <use xlink:href="#DejaVuSans-30" transform="translate(63.623047 0)"/>
      </g>
     </g>
    </g>
    <g id="ytick_4">
     <g id="line2d_6">
      <g>
       <use xlink:href="#mff4e2c4bad" x="44.66" y="224.030865" style="stroke: #000000; stroke-width: 0.8"/>
      </g>
     </g>
     <g id="text_6">
      <!-- 30 -->
      <g transform="translate(24.935 227.830083) scale(0.1 -0.1)">
       <defs>
        <path id="DejaVuSans-33" d="M 2597 2516 
Q 3050 2419 3304 2112 
Q 3559 1806 3559 1356 
Q 3559 666 3084 287 
Q 2609 -91 1734 -91 
Q 1441 -91 1130 -33 
Q 819 25 488 141 
L 488 750 
Q 750 597 1062 519 
Q 1375 441 1716 441 
Q 2309 441 2620 675 
Q 2931 909 2931 1356 
Q 2931 1769 2642 2001 
Q 2353 2234 1838 2234 
L 1294 2234 
L 1294 2753 
L 1863 2753 
Q 2328 2753 2575 2939 
Q 2822 3125 2822 3475 
Q 2822 3834 2567 4026 
Q 2313 4219 1838 4219 
Q 1578 4219 1281 4162 
Q 984 4106 628 3988 
L 628 4550 
Q 988 4650 1302 4700 
Q 1616 4750 1894 4750 
Q 2613 4750 3031 4423 
Q 3450 4097 3450 3541 
Q 3450 3153 3228 2886 
Q 3006 2619 2597 2516 
z
" transform="scale(0.015625)"/>
       </defs>
       <use xlink:href="#DejaVuSans-33"/>
       <use xlink:href="#DejaVuSans-30" transform="translate(63.623047 0)"/>
      </g>
     </g>
    </g>
    <g id="ytick_5">
     <g id="line2d_7">
      <g>
       <use xlink:href="#mff4e2c4bad" x="44.66" y="171.56585" style="stroke: #000000; stroke-width: 0.8"/>
      </g>
     </g>
     <g id="text_7">
      <!-- 40 -->
      <g transform="translate(24.935 175.365069) scale(0.1 -0.1)">
       <defs>
        <path id="DejaVuSans-34" d="M 2419 4116 
L 825 1625 
L 2419 1625 
L 2419 4116 
z
M 2253 4666 
L 3047 4666 
L 3047 1625 
L 3713 1625 
L 3713 1100 
L 3047 1100 
L 3047 0 
L 2419 0 
L 2419 1100 
L 313 1100 
L 313 1709 
L 2253 4666 
z
" transform="scale(0.015625)"/>
       </defs>
       <use xlink:href="#DejaVuSans-34"/>
       <use xlink:href="#DejaVuSans-30" transform="translate(63.623047 0)"/>
      </g>
     </g>
    </g>
    <g id="ytick_6">
     <g id="line2d_8">
      <g>
       <use xlink:href="#mff4e2c4bad" x="44.66" y="119.100835" style="stroke: #000000; stroke-width: 0.8"/>
      </g>
     </g>
     <g id="text_8">
      <!-- 50 -->
      <g transform="translate(24.935 122.900054) scale(0.1 -0.1)">
       <defs>
        <path id="DejaVuSans-35" d="M 691 4666 
L 3169 4666 
L 3169 4134 
L 1269 4134 
L 1269 2991 
Q 1406 3038 1543 3061 
Q 1681 3084 1819 3084 
Q 2600 3084 3056 2656 
Q 3513 2228 3513 1497 
Q 3513 744 3044 326 
Q 2575 -91 1722 -91 
Q 1428 -91 1123 -41 
Q 819 9 494 109 
L 494 744 
Q 775 591 1075 516 
Q 1375 441 1709 441 
Q 2250 441 2565 725 
Q 2881 1009 2881 1497 
Q 2881 1984 2565 2268 
Q 2250 2553 1709 2553 
Q 1456 2553 1204 2497 
Q 953 2441 691 2322 
L 691 4666 
z
" transform="scale(0.015625)"/>
       </defs>
       <use xlink:href="#DejaVuSans-35"/>
       <use xlink:href="#DejaVuSans-30" transform="translate(63.623047 0)"/>
      </g>
     </g>
    </g>
    <g id="ytick_7">
     <g id="line2d_9">
      <g>
       <use xlink:href="#mff4e2c4bad" x="44.66" y="66.635821" style="stroke: #000000; stroke-width: 0.8"/>
      </g>
     </g>
     <g id="text_9">
      <!-- 60 -->
      <g transform="translate(24.935 70.435039) scale(0.1 -0.1)">
       <defs>
        <path id="DejaVuSans-36" d="M 2113 2584 
Q 1688 2584 1439 2293 
Q 1191 2003 1191 1497 
Q 1191 994 1439 701 
Q 1688 409 2113 409 
Q 2538 409 2786 701 
Q 3034 994 3034 1497 
Q 3034 2003 2786 2293 
Q 2538 2584 2113 2584 
z
M 3366 4563 
L 3366 3988 
Q 3128 4100 2886 4159 
Q 2644 4219 2406 4219 
Q 1781 4219 1451 3797 
Q 1122 3375 1075 2522 
Q 1259 2794 1537 2939 
Q 1816 3084 2150 3084 
Q 2853 3084 3261 2657 
Q 3669 2231 3669 1497 
Q 3669 778 3244 343 
Q 2819 -91 2113 -91 
Q 1303 -91 875 529 
Q 447 1150 447 2328 
Q 447 3434 972 4092 
Q 1497 4750 2381 4750 
Q 2619 4750 2861 4703 
Q 3103 4656 3366 4563 
z
" transform="scale(0.015625)"/>
       </defs>
       <use xlink:href="#DejaVuSans-36"/>
       <use xlink:href="#DejaVuSans-30" transform="translate(63.623047 0)"/>
      </g>
     </g>
    </g>
    <g id="text_10">
     <!-- Pairwise Distance -->
     <g transform="translate(18.855313 259.049375) rotate(-90) scale(0.1 -0.1)">
      <defs>
       <path id="DejaVuSans-50" d="M 1259 4147 
L 1259 2394 
L 2053 2394 
Q 2494 2394 2734 2622 
Q 2975 2850 2975 3272 
Q 2975 3691 2734 3919 
Q 2494 4147 2053 4147 
L 1259 4147 
z
M 628 4666 
L 2053 4666 
Q 2838 4666 3239 4311 
Q 3641 3956 3641 3272 
Q 3641 2581 3239 2228 
Q 2838 1875 2053 1875 
L 1259 1875 
L 1259 0 
L 628 0 
L 628 4666 
z
" transform="scale(0.015625)"/>
       <path id="DejaVuSans-77" d="M 269 3500 
L 844 3500 
L 1563 769 
L 2278 3500 
L 2956 3500 
L 3675 769 
L 4391 3500 
L 4966 3500 
L 4050 0 
L 3372 0 
L 2619 2869 
L 1863 0 
L 1184 0 
L 269 3500 
z
" transform="scale(0.015625)"/>
       <path id="DejaVuSans-73" d="M 2834 3397 
L 2834 2853 
Q 2591 2978 2328 3040 
Q 2066 3103 1784 3103 
Q 1356 3103 1142 2972 
Q 928 2841 928 2578 
Q 928 2378 1081 2264 
Q 1234 2150 1697 2047 
L 1894 2003 
Q 2506 1872 2764 1633 
Q 3022 1394 3022 966 
Q 3022 478 2636 193 
Q 2250 -91 1575 -91 
Q 1294 -91 989 -36 
Q 684 19 347 128 
L 347 722 
Q 666 556 975 473 
Q 1284 391 1588 391 
Q 1994 391 2212 530 
Q 2431 669 2431 922 
Q 2431 1156 2273 1281 
Q 2116 1406 1581 1522 
L 1381 1569 
Q 847 1681 609 1914 
Q 372 2147 372 2553 
Q 372 3047 722 3315 
Q 1072 3584 1716 3584 
Q 2034 3584 2315 3537 
Q 2597 3491 2834 3397 
z
" transform="scale(0.015625)"/>
       <path id="DejaVuSans-20" transform="scale(0.015625)"/>
       <path id="DejaVuSans-44" d="M 1259 4147 
L 1259 519 
L 2022 519 
Q 2988 519 3436 956 
Q 3884 1394 3884 2338 
Q 3884 3275 3436 3711 
Q 2988 4147 2022 4147 
L 1259 4147 
z
M 628 4666 
L 1925 4666 
Q 3281 4666 3915 4102 
Q 4550 3538 4550 2338 
Q 4550 1131 3912 565 
Q 3275 0 1925 0 
L 628 0 
L 628 4666 
z
" transform="scale(0.015625)"/>
       <path id="DejaVuSans-63" d="M 3122 3366 
L 3122 2828 
Q 2878 2963 2633 3030 
Q 2388 3097 2138 3097 
Q 1578 3097 1268 2742 
Q 959 2388 959 1747 
Q 959 1106 1268 751 
Q 1578 397 2138 397 
Q 2388 397 2633 464 
Q 2878 531 3122 666 
L 3122 134 
Q 2881 22 2623 -34 
Q 2366 -91 2075 -91 
Q 1284 -91 818 406 
Q 353 903 353 1747 
Q 353 2603 823 3093 
Q 1294 3584 2113 3584 
Q 2378 3584 2631 3529 
Q 2884 3475 3122 3366 
z
" transform="scale(0.015625)"/>
      </defs>
      <use xlink:href="#DejaVuSans-50"/>
      <use xlink:href="#DejaVuSans-61" transform="translate(55.802734 0)"/>
      <use xlink:href="#DejaVuSans-69" transform="translate(117.082031 0)"/>
      <use xlink:href="#DejaVuSans-72" transform="translate(144.865234 0)"/>
      <use xlink:href="#DejaVuSans-77" transform="translate(185.978516 0)"/>
      <use xlink:href="#DejaVuSans-69" transform="translate(267.765625 0)"/>
      <use xlink:href="#DejaVuSans-73" transform="translate(295.548828 0)"/>
      <use xlink:href="#DejaVuSans-65" transform="translate(347.648438 0)"/>
      <use xlink:href="#DejaVuSans-20" transform="translate(409.171875 0)"/>
      <use xlink:href="#DejaVuSans-44" transform="translate(440.958984 0)"/>
      <use xlink:href="#DejaVuSans-69" transform="translate(517.960938 0)"/>
      <use xlink:href="#DejaVuSans-73" transform="translate(545.744141 0)"/>
      <use xlink:href="#DejaVuSans-74" transform="translate(597.84375 0)"/>
      <use xlink:href="#DejaVuSans-61" transform="translate(637.052734 0)"/>
      <use xlink:href="#DejaVuSans-6e" transform="translate(698.332031 0)"/>
      <use xlink:href="#DejaVuSans-63" transform="translate(761.710938 0)"/>
      <use xlink:href="#DejaVuSans-65" transform="translate(816.691406 0)"/>
     </g>
    </g>
   </g>
   <g id="line2d_10">
    <path d="M 138.795 377.856731 
L 138.795 102.207358 
" clip-path="url(#pa3b1fca480)" style="fill: none; stroke: #3f3f3f; stroke-width: 1.875; stroke-linecap: square"/>
   </g>
   <g id="line2d_11">
    <path d="M 138.795 274.496978 
L 138.795 205.579945 
" clip-path="url(#pa3b1fca480)" style="fill: none; stroke: #3f3f3f; stroke-width: 5.625; stroke-linecap: square"/>
   </g>
   <g id="line2d_12">
    <path d="M 138.795 239.129677 
" clip-path="url(#pa3b1fca480)" style="fill: none; stroke: #3f3f3f; stroke-width: 1.5; stroke-linecap: square"/>
    <defs>
     <path id="mce3f94d510" d="M 2.34375 0 
L -2.34375 -0 
" style="stroke: #ffffff; stroke-width: 1.125"/>
    </defs>
    <g clip-path="url(#pa3b1fca480)">
     <use xlink:href="#mce3f94d510" x="138.795" y="239.129677" style="fill: #ffffff; stroke: #ffffff; stroke-width: 1.125"/>
    </g>
   </g>
   <g id="line2d_13">
    <path d="M 327.065 381.412336 
L 327.065 188.570974 
" clip-path="url(#pa3b1fca480)" style="fill: none; stroke: #3f3f3f; stroke-width: 1.875; stroke-linecap: square"/>
   </g>
   <g id="line2d_14">
    <path d="M 327.065 322.711644 
L 327.065 269.054252 
" clip-path="url(#pa3b1fca480)" style="fill: none; stroke: #3f3f3f; stroke-width: 5.625; stroke-linecap: square"/>
   </g>
   <g id="line2d_15">
    <path d="M 327.065 297.615263 
" clip-path="url(#pa3b1fca480)" style="fill: none; stroke: #3f3f3f; stroke-width: 1.5; stroke-linecap: square"/>
    <g clip-path="url(#pa3b1fca480)">
     <use xlink:href="#mce3f94d510" x="327.065" y="297.615263" style="fill: #ffffff; stroke: #ffffff; stroke-width: 1.125"/>
    </g>
   </g>
   <g id="patch_3">
    <path d="M 44.66 404.12 
L 44.66 26.16 
" style="fill: none; stroke: #000000; stroke-width: 0.8; stroke-linejoin: miter; stroke-linecap: square"/>
   </g>
   <g id="patch_4">
    <path d="M 421.2 404.12 
L 421.2 26.16 
" style="fill: none; stroke: #000000; stroke-width: 0.8; stroke-linejoin: miter; stroke-linecap: square"/>
   </g>
   <g id="patch_5">
    <path d="M 44.66 404.12 
L 421.2 404.12 
" style="fill: none; stroke: #000000; stroke-width: 0.8; stroke-linejoin: miter; stroke-linecap: square"/>
   </g>
   <g id="patch_6">
    <path d="M 44.66 26.16 
L 421.2 26.16 
" style="fill: none; stroke: #000000; stroke-width: 0.8; stroke-linejoin: miter; stroke-linecap: square"/>
   </g>
   <g id="text_11">
    <!-- flatten_cartesian - TSNE (3D) Distances -->
    <g transform="translate(114.490938 20.16) scale(0.12 -0.12)">
     <defs>
      <path id="DejaVuSans-66" d="M 2375 4863 
L 2375 4384 
L 1825 4384 
Q 1516 4384 1395 4259 
Q 1275 4134 1275 3809 
L 1275 3500 
L 2222 3500 
L 2222 3053 
L 1275 3053 
L 1275 0 
L 697 0 
L 697 3053 
L 147 3053 
L 147 3500 
L 697 3500 
L 697 3744 
Q 697 4328 969 4595 
Q 1241 4863 1831 4863 
L 2375 4863 
z
" transform="scale(0.015625)"/>
      <path id="DejaVuSans-6c" d="M 603 4863 
L 1178 4863 
L 1178 0 
L 603 0 
L 603 4863 
z
" transform="scale(0.015625)"/>
      <path id="DejaVuSans-5f" d="M 3263 -1063 
L 3263 -1509 
L -63 -1509 
L -63 -1063 
L 3263 -1063 
z
" transform="scale(0.015625)"/>
      <path id="DejaVuSans-2d" d="M 313 2009 
L 1997 2009 
L 1997 1497 
L 313 1497 
L 313 2009 
z
" transform="scale(0.015625)"/>
      <path id="DejaVuSans-54" d="M -19 4666 
L 3928 4666 
L 3928 4134 
L 2272 4134 
L 2272 0 
L 1638 0 
L 1638 4134 
L -19 4134 
L -19 4666 
z
" transform="scale(0.015625)"/>
      <path id="DejaVuSans-53" d="M 3425 4513 
L 3425 3897 
Q 3066 4069 2747 4153 
Q 2428 4238 2131 4238 
Q 1616 4238 1336 4038 
Q 1056 3838 1056 3469 
Q 1056 3159 1242 3001 
Q 1428 2844 1947 2747 
L 2328 2669 
Q 3034 2534 3370 2195 
Q 3706 1856 3706 1288 
Q 3706 609 3251 259 
Q 2797 -91 1919 -91 
Q 1588 -91 1214 -16 
Q 841 59 441 206 
L 441 856 
Q 825 641 1194 531 
Q 1563 422 1919 422 
Q 2459 422 2753 634 
Q 3047 847 3047 1241 
Q 3047 1584 2836 1778 
Q 2625 1972 2144 2069 
L 1759 2144 
Q 1053 2284 737 2584 
Q 422 2884 422 3419 
Q 422 4038 858 4394 
Q 1294 4750 2059 4750 
Q 2388 4750 2728 4690 
Q 3069 4631 3425 4513 
z
" transform="scale(0.015625)"/>
      <path id="DejaVuSans-4e" d="M 628 4666 
L 1478 4666 
L 3547 763 
L 3547 4666 
L 4159 4666 
L 4159 0 
L 3309 0 
L 1241 3903 
L 1241 0 
L 628 0 
L 628 4666 
z
" transform="scale(0.015625)"/>
      <path id="DejaVuSans-45" d="M 628 4666 
L 3578 4666 
L 3578 4134 
L 1259 4134 
L 1259 2753 
L 3481 2753 
L 3481 2222 
L 1259 2222 
L 1259 531 
L 3634 531 
L 3634 0 
L 628 0 
L 628 4666 
z
" transform="scale(0.015625)"/>
      <path id="DejaVuSans-28" d="M 1984 4856 
Q 1566 4138 1362 3434 
Q 1159 2731 1159 2009 
Q 1159 1288 1364 580 
Q 1569 -128 1984 -844 
L 1484 -844 
Q 1016 -109 783 600 
Q 550 1309 550 2009 
Q 550 2706 781 3412 
Q 1013 4119 1484 4856 
L 1984 4856 
z
" transform="scale(0.015625)"/>
      <path id="DejaVuSans-29" d="M 513 4856 
L 1013 4856 
Q 1481 4119 1714 3412 
Q 1947 2706 1947 2009 
Q 1947 1309 1714 600 
Q 1481 -109 1013 -844 
L 513 -844 
Q 928 -128 1133 580 
Q 1338 1288 1338 2009 
Q 1338 2731 1133 3434 
Q 928 4138 513 4856 
z
" transform="scale(0.015625)"/>
     </defs>
     <use xlink:href="#DejaVuSans-66"/>
     <use xlink:href="#DejaVuSans-6c" transform="translate(35.205078 0)"/>
     <use xlink:href="#DejaVuSans-61" transform="translate(62.988281 0)"/>
     <use xlink:href="#DejaVuSans-74" transform="translate(124.267578 0)"/>
     <use xlink:href="#DejaVuSans-74" transform="translate(163.476562 0)"/>
     <use xlink:href="#DejaVuSans-65" transform="translate(202.685547 0)"/>
     <use xlink:href="#DejaVuSans-6e" transform="translate(264.208984 0)"/>
     <use xlink:href="#DejaVuSans-5f" transform="translate(327.587891 0)"/>
     <use xlink:href="#DejaVuSans-63" transform="translate(377.587891 0)"/>
     <use xlink:href="#DejaVuSans-61" transform="translate(432.568359 0)"/>
     <use xlink:href="#DejaVuSans-72" transform="translate(493.847656 0)"/>
     <use xlink:href="#DejaVuSans-74" transform="translate(534.960938 0)"/>
     <use xlink:href="#DejaVuSans-65" transform="translate(574.169922 0)"/>
     <use xlink:href="#DejaVuSans-73" transform="translate(635.693359 0)"/>
     <use xlink:href="#DejaVuSans-69" transform="translate(687.792969 0)"/>
     <use xlink:href="#DejaVuSans-61" transform="translate(715.576172 0)"/>
     <use xlink:href="#DejaVuSans-6e" transform="translate(776.855469 0)"/>
     <use xlink:href="#DejaVuSans-20" transform="translate(840.234375 0)"/>
     <use xlink:href="#DejaVuSans-2d" transform="translate(872.021484 0)"/>
     <use xlink:href="#DejaVuSans-20" transform="translate(908.105469 0)"/>
     <use xlink:href="#DejaVuSans-54" transform="translate(939.892578 0)"/>
     <use xlink:href="#DejaVuSans-53" transform="translate(1000.976562 0)"/>
     <use xlink:href="#DejaVuSans-4e" transform="translate(1064.453125 0)"/>
     <use xlink:href="#DejaVuSans-45" transform="translate(1139.257812 0)"/>
     <use xlink:href="#DejaVuSans-20" transform="translate(1202.441406 0)"/>
     <use xlink:href="#DejaVuSans-28" transform="translate(1234.228516 0)"/>
     <use xlink:href="#DejaVuSans-33" transform="translate(1273.242188 0)"/>
     <use xlink:href="#DejaVuSans-44" transform="translate(1336.865234 0)"/>
     <use xlink:href="#DejaVuSans-29" transform="translate(1413.867188 0)"/>
     <use xlink:href="#DejaVuSans-20" transform="translate(1452.880859 0)"/>
     <use xlink:href="#DejaVuSans-44" transform="translate(1484.667969 0)"/>
     <use xlink:href="#DejaVuSans-69" transform="translate(1561.669922 0)"/>
     <use xlink:href="#DejaVuSans-73" transform="translate(1589.453125 0)"/>
     <use xlink:href="#DejaVuSans-74" transform="translate(1641.552734 0)"/>
     <use xlink:href="#DejaVuSans-61" transform="translate(1680.761719 0)"/>
     <use xlink:href="#DejaVuSans-6e" transform="translate(1742.041016 0)"/>
     <use xlink:href="#DejaVuSans-63" transform="translate(1805.419922 0)"/>
     <use xlink:href="#DejaVuSans-65" transform="translate(1860.400391 0)"/>
     <use xlink:href="#DejaVuSans-73" transform="translate(1921.923828 0)"/>
    </g>
   </g>
  </g>
 </g>
 <defs>
  <clipPath id="pa3b1fca480">
   <rect x="44.66" y="26.16" width="376.54" height="377.96"/>
  </clipPath>
 </defs>
</svg>
