<?xml version="1.0" encoding="utf-8" standalone="no"?>
<!DOCTYPE svg PUBLIC "-//W3C//DTD SVG 1.1//EN"
  "http://www.w3.org/Graphics/SVG/1.1/DTD/svg11.dtd">
<svg xmlns:xlink="http://www.w3.org/1999/xlink" width="432pt" height="432pt" viewBox="0 0 432 432" xmlns="http://www.w3.org/2000/svg" version="1.1">
 <metadata>
  <rdf:RDF xmlns:dc="http://purl.org/dc/elements/1.1/" xmlns:cc="http://creativecommons.org/ns#" xmlns:rdf="http://www.w3.org/1999/02/22-rdf-syntax-ns#">
   <cc:Work>
    <dc:type rdf:resource="http://purl.org/dc/dcmitype/StillImage"/>
    <dc:date>2026-02-17T16:56:10.741463</dc:date>
    <dc:format>image/svg+xml</dc:format>
    <dc:creator>
     <cc:Agent>
      <dc:title>Matplotlib v3.10.3, https://matplotlib.org/</dc:title>
     </cc:Agent>
    </dc:creator>
   </cc:Work>
  </rdf:RDF>
 </metadata>
 <defs>
  <style type="text/css">*{stroke-linejoin: round; stroke-linecap: butt}</style>
 </defs>
 <g id="figure_1">
  <g id="patch_1">
   <path d="M 0 432 
L 432 432 
L 432 0 
L 0 0 
z
" style="fill: #ffffff"/>
  </g>
  <g id="axes_1">
   <g id="patch_2">
    <path d="M 44.615 404.12 
L 421.2 404.12 
L 421.2 26.16 
L 44.615 26.16 
z
" style="fill: #ffffff"/>
   </g>
   <g id="FillBetweenPolyCollection_1">
    <defs>
     <path id="m1059c23319" d="M 140.505921 -46.699813 
L 137.016579 -46.699813 
L 126.490743 -50.123562 
L 100.023757 -53.547311 
L 73.842493 -56.97106 
L 64.05105 -60.394809 
L 63.44425 -63.818558 
L 64.500854 -67.242308 
L 65.521377 -70.666057 
L 66.248373 -74.089806 
L 66.775887 -77.513555 
L 67.308193 -80.937304 
L 67.88142 -84.361053 
L 68.44556 -87.784802 
L 69.055179 -91.208551 
L 69.829674 -94.6323 
L 70.70217 -98.056049 
L 71.578019 -101.479798 
L 72.436689 -104.903547 
L 73.316658 -108.327297 
L 74.248043 -111.751046 
L 75.206903 -115.174795 
L 76.240529 -118.598544 
L 77.498994 -122.022293 
L 78.930434 -125.446042 
L 80.4332 -128.869791 
L 81.961942 -132.29354 
L 83.414445 -135.717289 
L 84.687947 -139.141038 
L 85.692301 -142.564787 
L 86.541297 -145.988537 
L 87.424653 -149.412286 
L 88.447734 -152.836035 
L 89.586587 -156.259784 
L 90.842919 -159.683533 
L 92.227999 -163.107282 
L 93.587365 -166.531031 
L 94.760199 -169.95478 
L 95.847862 -173.378529 
L 96.910409 -176.802278 
L 97.912212 -180.226027 
L 98.942363 -183.649777 
L 100.055385 -187.073526 
L 101.086098 -190.497275 
L 102.008342 -193.921024 
L 102.973436 -197.344773 
L 104.005024 -200.768522 
L 105.036268 -204.192271 
L 106.029602 -207.61602 
L 107.085789 -211.039769 
L 108.266214 -214.463518 
L 109.428083 -217.887267 
L 110.530384 -221.311016 
L 111.669782 -224.734766 
L 112.774739 -228.158515 
L 113.835354 -231.582264 
L 114.916993 -235.006013 
L 115.972057 -238.429762 
L 116.997335 -241.853511 
L 118.049262 -245.27726 
L 119.051189 -248.701009 
L 119.988683 -252.124758 
L 120.936909 -255.548507 
L 121.916023 -258.972256 
L 122.91326 -262.396006 
L 123.927027 -265.819755 
L 124.93291 -269.243504 
L 125.907621 -272.667253 
L 126.884081 -276.091002 
L 127.838121 -279.514751 
L 128.712077 -282.9385 
L 129.53747 -286.362249 
L 130.354591 -289.785998 
L 131.149017 -293.209747 
L 131.893557 -296.633496 
L 132.572142 -300.057246 
L 133.175463 -303.480995 
L 133.712998 -306.904744 
L 134.191158 -310.328493 
L 134.636647 -313.752242 
L 135.090161 -317.175991 
L 135.53238 -320.59974 
L 135.920027 -324.023489 
L 136.265636 -327.447238 
L 136.590739 -330.870987 
L 136.898665 -334.294736 
L 137.197312 -337.718485 
L 137.496723 -341.142235 
L 137.77824 -344.565984 
L 138.011511 -347.989733 
L 138.203274 -351.413482 
L 138.348559 -354.837231 
L 138.450785 -358.26098 
L 138.538842 -361.684729 
L 138.611046 -365.108478 
L 138.665812 -368.532227 
L 138.707813 -371.955976 
L 138.737266 -375.379725 
L 138.752791 -378.803475 
L 138.75902 -382.227224 
L 138.760922 -385.650973 
L 138.761578 -385.650973 
L 138.761578 -385.650973 
L 138.76348 -382.227224 
L 138.769709 -378.803475 
L 138.785234 -375.379725 
L 138.814687 -371.955976 
L 138.856688 -368.532227 
L 138.911454 -365.108478 
L 138.983658 -361.684729 
L 139.071715 -358.26098 
L 139.173941 -354.837231 
L 139.319226 -351.413482 
L 139.510989 -347.989733 
L 139.74426 -344.565984 
L 140.025777 -341.142235 
L 140.325188 -337.718485 
L 140.623835 -334.294736 
L 140.931761 -330.870987 
L 141.256864 -327.447238 
L 141.602473 -324.023489 
L 141.99012 -320.59974 
L 142.432339 -317.175991 
L 142.885853 -313.752242 
L 143.331342 -310.328493 
L 143.809502 -306.904744 
L 144.347037 -303.480995 
L 144.950358 -300.057246 
L 145.628943 -296.633496 
L 146.373483 -293.209747 
L 147.167909 -289.785998 
L 147.98503 -286.362249 
L 148.810423 -282.9385 
L 149.684379 -279.514751 
L 150.638419 -276.091002 
L 151.614879 -272.667253 
L 152.58959 -269.243504 
L 153.595473 -265.819755 
L 154.60924 -262.396006 
L 155.606477 -258.972256 
L 156.585591 -255.548507 
L 157.533817 -252.124758 
L 158.471311 -248.701009 
L 159.473238 -245.27726 
L 160.525165 -241.853511 
L 161.550443 -238.429762 
L 162.605507 -235.006013 
L 163.687146 -231.582264 
L 164.747761 -228.158515 
L 165.852718 -224.734766 
L 166.992116 -221.311016 
L 168.094417 -217.887267 
L 169.256286 -214.463518 
L 170.436711 -211.039769 
L 171.492898 -207.61602 
L 172.486232 -204.192271 
L 173.517476 -200.768522 
L 174.549064 -197.344773 
L 175.514158 -193.921024 
L 176.436402 -190.497275 
L 177.467115 -187.073526 
L 178.580137 -183.649777 
L 179.610288 -180.226027 
L 180.612091 -176.802278 
L 181.674638 -173.378529 
L 182.762301 -169.95478 
L 183.935135 -166.531031 
L 185.294501 -163.107282 
L 186.679581 -159.683533 
L 187.935913 -156.259784 
L 189.074766 -152.836035 
L 190.097847 -149.412286 
L 190.981203 -145.988537 
L 191.830199 -142.564787 
L 192.834553 -139.141038 
L 194.108055 -135.717289 
L 195.560558 -132.29354 
L 197.0893 -128.869791 
L 198.592066 -125.446042 
L 200.023506 -122.022293 
L 201.281971 -118.598544 
L 202.315597 -115.174795 
L 203.274457 -111.751046 
L 204.205842 -108.327297 
L 205.085811 -104.903547 
L 205.944481 -101.479798 
L 206.82033 -98.056049 
L 207.692826 -94.6323 
L 208.467321 -91.208551 
L 209.07694 -87.784802 
L 209.64108 -84.361053 
L 210.214307 -80.937304 
L 210.746613 -77.513555 
L 211.274127 -74.089806 
L 212.001123 -70.666057 
L 213.021646 -67.242308 
L 214.07825 -63.818558 
L 213.47145 -60.394809 
L 203.680007 -56.97106 
L 177.498743 -53.547311 
L 151.031757 -50.123562 
L 140.505921 -46.699813 
z
" style="stroke: #3f3f3f; stroke-width: 1.25"/>
    </defs>
    <g clip-path="url(#p9469bc0be1)">
     <use xlink:href="#m1059c23319" x="0" y="432" style="fill: #e1812c; stroke: #3f3f3f; stroke-width: 1.25"/>
    </g>
   </g>
   <g id="FillBetweenPolyCollection_2">
    <defs>
     <path id="mc526e3232d" d="M 328.83363 -45.06 
L 325.27387 -45.06 
L 317.715384 -48.530707 
L 298.818584 -52.001414 
L 273.982175 -55.472121 
L 257.103785 -58.942828 
L 251.73675 -62.413535 
L 251.771005 -65.884242 
L 252.82002 -69.354949 
L 253.617904 -72.825657 
L 254.001063 -76.296364 
L 254.229349 -79.767071 
L 254.695695 -83.237778 
L 255.541575 -86.708485 
L 256.573533 -90.179192 
L 257.592567 -93.649899 
L 258.497284 -97.120606 
L 259.22701 -100.591313 
L 259.887312 -104.06202 
L 260.680766 -107.532727 
L 261.65489 -111.003434 
L 262.78572 -114.474141 
L 264.078763 -117.944848 
L 265.427548 -121.415556 
L 266.755882 -124.886263 
L 268.069792 -128.35697 
L 269.357607 -131.827677 
L 270.639153 -135.298384 
L 271.990782 -138.769091 
L 273.385871 -142.239798 
L 274.705175 -145.710505 
L 275.882627 -149.181212 
L 276.897447 -152.651919 
L 277.868383 -156.122626 
L 278.947682 -159.593333 
L 280.095541 -163.06404 
L 281.286287 -166.534747 
L 282.601677 -170.005455 
L 283.904932 -173.476162 
L 285.013158 -176.946869 
L 285.911564 -180.417576 
L 286.677152 -183.888283 
L 287.47268 -187.35899 
L 288.439811 -190.829697 
L 289.560764 -194.300404 
L 290.714989 -197.771111 
L 291.792792 -201.241818 
L 292.784509 -204.712525 
L 293.7637 -208.183232 
L 294.742926 -211.653939 
L 295.763908 -215.124646 
L 296.912009 -218.595354 
L 298.161826 -222.066061 
L 299.404102 -225.536768 
L 300.582042 -229.007475 
L 301.687172 -232.478182 
L 302.739079 -235.948889 
L 303.763484 -239.419596 
L 304.777231 -242.890303 
L 305.819945 -246.36101 
L 306.898469 -249.831717 
L 307.957502 -253.302424 
L 308.939542 -256.773131 
L 309.860687 -260.243838 
L 310.800013 -263.714545 
L 311.816542 -267.185253 
L 312.905432 -270.65596 
L 313.990687 -274.126667 
L 315.007364 -277.597374 
L 315.969513 -281.068081 
L 316.922164 -284.538788 
L 317.836787 -288.009495 
L 318.669113 -291.480202 
L 319.454261 -294.950909 
L 320.228672 -298.421616 
L 320.959978 -301.892323 
L 321.621281 -305.36303 
L 322.22694 -308.833737 
L 322.777596 -312.304444 
L 323.241284 -315.775152 
L 323.612061 -319.245859 
L 323.946222 -322.716566 
L 324.316269 -326.187273 
L 324.718351 -329.65798 
L 325.091072 -333.128687 
L 325.417381 -336.599394 
L 325.715546 -340.070101 
L 325.983461 -343.540808 
L 326.213391 -347.011515 
L 326.411559 -350.482222 
L 326.586836 -353.952929 
L 326.735098 -357.423636 
L 326.843273 -360.894343 
L 326.913306 -364.365051 
L 326.961679 -367.835758 
L 326.998367 -371.306465 
L 327.024469 -374.777172 
L 327.040624 -378.247879 
L 327.049026 -381.718586 
L 327.052463 -385.189293 
L 327.053508 -388.66 
L 327.053992 -388.66 
L 327.053992 -388.66 
L 327.055037 -385.189293 
L 327.058474 -381.718586 
L 327.066876 -378.247879 
L 327.083031 -374.777172 
L 327.109133 -371.306465 
L 327.145821 -367.835758 
L 327.194194 -364.365051 
L 327.264227 -360.894343 
L 327.372402 -357.423636 
L 327.520664 -353.952929 
L 327.695941 -350.482222 
L 327.894109 -347.011515 
L 328.124039 -343.540808 
L 328.391954 -340.070101 
L 328.690119 -336.599394 
L 329.016428 -333.128687 
L 329.389149 -329.65798 
L 329.791231 -326.187273 
L 330.161278 -322.716566 
L 330.495439 -319.245859 
L 330.866216 -315.775152 
L 331.329904 -312.304444 
L 331.88056 -308.833737 
L 332.486219 -305.36303 
L 333.147522 -301.892323 
L 333.878828 -298.421616 
L 334.653239 -294.950909 
L 335.438387 -291.480202 
L 336.270713 -288.009495 
L 337.185336 -284.538788 
L 338.137987 -281.068081 
L 339.100136 -277.597374 
L 340.116813 -274.126667 
L 341.202068 -270.65596 
L 342.290958 -267.185253 
L 343.307487 -263.714545 
L 344.246813 -260.243838 
L 345.167958 -256.773131 
L 346.149998 -253.302424 
L 347.209031 -249.831717 
L 348.287555 -246.36101 
L 349.330269 -242.890303 
L 350.344016 -239.419596 
L 351.368421 -235.948889 
L 352.420328 -232.478182 
L 353.525458 -229.007475 
L 354.703398 -225.536768 
L 355.945674 -222.066061 
L 357.195491 -218.595354 
L 358.343592 -215.124646 
L 359.364574 -211.653939 
L 360.3438 -208.183232 
L 361.322991 -204.712525 
L 362.314708 -201.241818 
L 363.392511 -197.771111 
L 364.546736 -194.300404 
L 365.667689 -190.829697 
L 366.63482 -187.35899 
L 367.430348 -183.888283 
L 368.195936 -180.417576 
L 369.094342 -176.946869 
L 370.202568 -173.476162 
L 371.505823 -170.005455 
L 372.821213 -166.534747 
L 374.011959 -163.06404 
L 375.159818 -159.593333 
L 376.239117 -156.122626 
L 377.210053 -152.651919 
L 378.224873 -149.181212 
L 379.402325 -145.710505 
L 380.721629 -142.239798 
L 382.116718 -138.769091 
L 383.468347 -135.298384 
L 384.749893 -131.827677 
L 386.037708 -128.35697 
L 387.351618 -124.886263 
L 388.679952 -121.415556 
L 390.028737 -117.944848 
L 391.32178 -114.474141 
L 392.45261 -111.003434 
L 393.426734 -107.532727 
L 394.220188 -104.06202 
L 394.88049 -100.591313 
L 395.610216 -97.120606 
L 396.514933 -93.649899 
L 397.533967 -90.179192 
L 398.565925 -86.708485 
L 399.411805 -83.237778 
L 399.878151 -79.767071 
L 400.106437 -76.296364 
L 400.489596 -72.825657 
L 401.28748 -69.354949 
L 402.336495 -65.884242 
L 402.37075 -62.413535 
L 397.003715 -58.942828 
L 380.125325 -55.472121 
L 355.288916 -52.001414 
L 336.392116 -48.530707 
L 328.83363 -45.06 
z
" style="stroke: #3f3f3f; stroke-width: 1.25"/>
    </defs>
    <g clip-path="url(#p9469bc0be1)">
     <use xlink:href="#mc526e3232d" x="0" y="432" style="fill: #3274a1; stroke: #3f3f3f; stroke-width: 1.25"/>
    </g>
   </g>
   <g id="matplotlib.axis_1">
    <g id="xtick_1">
     <g id="line2d_1">
      <defs>
       <path id="ma69fc5b89c" d="M 0 0 
L 0 3.5 
" style="stroke: #000000; stroke-width: 0.8"/>
      </defs>
      <g>
       <use xlink:href="#ma69fc5b89c" x="138.76125" y="404.12" style="stroke: #000000; stroke-width: 0.8"/>
      </g>
     </g>
     <g id="text_1">
      <!-- inter -->
      <g transform="translate(127.11125 418.718437) scale(0.1 -0.1)">
       <defs>
        <path id="DejaVuSans-69" d="M 603 3500 
L 1178 3500 
L 1178 0 
L 603 0 
L 603 3500 
z
M 603 4863 
L 1178 4863 
L 1178 4134 
L 603 4134 
L 603 4863 
z
" transform="scale(0.015625)"/>
        <path id="DejaVuSans-6e" d="M 3513 2113 
L 3513 0 
L 2938 0 
L 2938 2094 
Q 2938 2591 2744 2837 
Q 2550 3084 2163 3084 
Q 1697 3084 1428 2787 
Q 1159 2491 1159 1978 
L 1159 0 
L 581 0 
L 581 3500 
L 1159 3500 
L 1159 2956 
Q 1366 3272 1645 3428 
Q 1925 3584 2291 3584 
Q 2894 3584 3203 3211 
Q 3513 2838 3513 2113 
z
" transform="scale(0.015625)"/>
        <path id="DejaVuSans-74" d="M 1172 4494 
L 1172 3500 
L 2356 3500 
L 2356 3053 
L 1172 3053 
L 1172 1153 
Q 1172 725 1289 603 
Q 1406 481 1766 481 
L 2356 481 
L 2356 0 
L 1766 0 
Q 1100 0 847 248 
Q 594 497 594 1153 
L 594 3053 
L 172 3053 
L 172 3500 
L 594 3500 
L 594 4494 
L 1172 4494 
z
" transform="scale(0.015625)"/>
        <path id="DejaVuSans-65" d="M 3597 1894 
L 3597 1613 
L 953 1613 
Q 991 1019 1311 708 
Q 1631 397 2203 397 
Q 2534 397 2845 478 
Q 3156 559 3463 722 
L 3463 178 
Q 3153 47 2828 -22 
Q 2503 -91 2169 -91 
Q 1331 -91 842 396 
Q 353 884 353 1716 
Q 353 2575 817 3079 
Q 1281 3584 2069 3584 
Q 2775 3584 3186 3129 
Q 3597 2675 3597 1894 
z
M 3022 2063 
Q 3016 2534 2758 2815 
Q 2500 3097 2075 3097 
Q 1594 3097 1305 2825 
Q 1016 2553 972 2059 
L 3022 2063 
z
" transform="scale(0.015625)"/>
        <path id="DejaVuSans-72" d="M 2631 2963 
Q 2534 3019 2420 3045 
Q 2306 3072 2169 3072 
Q 1681 3072 1420 2755 
Q 1159 2438 1159 1844 
L 1159 0 
L 581 0 
L 581 3500 
L 1159 3500 
L 1159 2956 
Q 1341 3275 1631 3429 
Q 1922 3584 2338 3584 
Q 2397 3584 2469 3576 
Q 2541 3569 2628 3553 
L 2631 2963 
z
" transform="scale(0.015625)"/>
       </defs>
       <use xlink:href="#DejaVuSans-69"/>
       <use xlink:href="#DejaVuSans-6e" transform="translate(27.783203 0)"/>
       <use xlink:href="#DejaVuSans-74" transform="translate(91.162109 0)"/>
       <use xlink:href="#DejaVuSans-65" transform="translate(130.371094 0)"/>
       <use xlink:href="#DejaVuSans-72" transform="translate(191.894531 0)"/>
      </g>
     </g>
    </g>
    <g id="xtick_2">
     <g id="line2d_2">
      <g>
       <use xlink:href="#ma69fc5b89c" x="327.05375" y="404.12" style="stroke: #000000; stroke-width: 0.8"/>
      </g>
     </g>
     <g id="text_2">
      <!-- intra -->
      <g transform="translate(315.41625 418.718437) scale(0.1 -0.1)">
       <defs>
        <path id="DejaVuSans-61" d="M 2194 1759 
Q 1497 1759 1228 1600 
Q 959 1441 959 1056 
Q 959 750 1161 570 
Q 1363 391 1709 391 
Q 2188 391 2477 730 
Q 2766 1069 2766 1631 
L 2766 1759 
L 2194 1759 
z
M 3341 1997 
L 3341 0 
L 2766 0 
L 2766 531 
Q 2569 213 2275 61 
Q 1981 -91 1556 -91 
Q 1019 -91 701 211 
Q 384 513 384 1019 
Q 384 1609 779 1909 
Q 1175 2209 1959 2209 
L 2766 2209 
L 2766 2266 
Q 2766 2663 2505 2880 
Q 2244 3097 1772 3097 
Q 1472 3097 1187 3025 
Q 903 2953 641 2809 
L 641 3341 
Q 956 3463 1253 3523 
Q 1550 3584 1831 3584 
Q 2591 3584 2966 3190 
Q 3341 2797 3341 1997 
z
" transform="scale(0.015625)"/>
       </defs>
       <use xlink:href="#DejaVuSans-69"/>
       <use xlink:href="#DejaVuSans-6e" transform="translate(27.783203 0)"/>
       <use xlink:href="#DejaVuSans-74" transform="translate(91.162109 0)"/>
       <use xlink:href="#DejaVuSans-72" transform="translate(130.371094 0)"/>
       <use xlink:href="#DejaVuSans-61" transform="translate(171.484375 0)"/>
      </g>
     </g>
    </g>
   </g>
   <g id="matplotlib.axis_2">
    <g id="ytick_1">
     <g id="line2d_3">
      <defs>
       <path id="md9c6a503fc" d="M 0 0 
L -3.5 0 
" style="stroke: #000000; stroke-width: 0.8"/>
      </defs>
      <g>
       <use xlink:href="#md9c6a503fc" x="44.615" y="378.481812" style="stroke: #000000; stroke-width: 0.8"/>
      </g>
     </g>
     <g id="text_3">
      <!-- 0 -->
      <g transform="translate(31.2525 382.28103) scale(0.1 -0.1)">
       <defs>
        <path id="DejaVuSans-30" d="M 2034 4250 
Q 1547 4250 1301 3770 
Q 1056 3291 1056 2328 
Q 1056 1369 1301 889 
Q 1547 409 2034 409 
Q 2525 409 2770 889 
Q 3016 1369 3016 2328 
Q 3016 3291 2770 3770 
Q 2525 4250 2034 4250 
z
M 2034 4750 
Q 2819 4750 3233 4129 
Q 3647 3509 3647 2328 
Q 3647 1150 3233 529 
Q 2819 -91 2034 -91 
Q 1250 -91 836 529 
Q 422 1150 422 2328 
Q 422 3509 836 4129 
Q 1250 4750 2034 4750 
z
" transform="scale(0.015625)"/>
       </defs>
       <use xlink:href="#DejaVuSans-30"/>
      </g>
     </g>
    </g>
    <g id="ytick_2">
     <g id="line2d_4">
      <g>
       <use xlink:href="#md9c6a503fc" x="44.615" y="298.890861" style="stroke: #000000; stroke-width: 0.8"/>
      </g>
     </g>
     <g id="text_4">
      <!-- 5 -->
      <g transform="translate(31.2525 302.69008) scale(0.1 -0.1)">
       <defs>
        <path id="DejaVuSans-35" d="M 691 4666 
L 3169 4666 
L 3169 4134 
L 1269 4134 
L 1269 2991 
Q 1406 3038 1543 3061 
Q 1681 3084 1819 3084 
Q 2600 3084 3056 2656 
Q 3513 2228 3513 1497 
Q 3513 744 3044 326 
Q 2575 -91 1722 -91 
Q 1428 -91 1123 -41 
Q 819 9 494 109 
L 494 744 
Q 775 591 1075 516 
Q 1375 441 1709 441 
Q 2250 441 2565 725 
Q 2881 1009 2881 1497 
Q 2881 1984 2565 2268 
Q 2250 2553 1709 2553 
Q 1456 2553 1204 2497 
Q 953 2441 691 2322 
L 691 4666 
z
" transform="scale(0.015625)"/>
       </defs>
       <use xlink:href="#DejaVuSans-35"/>
      </g>
     </g>
    </g>
    <g id="ytick_3">
     <g id="line2d_5">
      <g>
       <use xlink:href="#md9c6a503fc" x="44.615" y="219.29991" style="stroke: #000000; stroke-width: 0.8"/>
      </g>
     </g>
     <g id="text_5">
      <!-- 10 -->
      <g transform="translate(24.89 223.099129) scale(0.1 -0.1)">
       <defs>
        <path id="DejaVuSans-31" d="M 794 531 
L 1825 531 
L 1825 4091 
L 703 3866 
L 703 4441 
L 1819 4666 
L 2450 4666 
L 2450 531 
L 3481 531 
L 3481 0 
L 794 0 
L 794 531 
z
" transform="scale(0.015625)"/>
       </defs>
       <use xlink:href="#DejaVuSans-31"/>
       <use xlink:href="#DejaVuSans-30" transform="translate(63.623047 0)"/>
      </g>
     </g>
    </g>
    <g id="ytick_4">
     <g id="line2d_6">
      <g>
       <use xlink:href="#md9c6a503fc" x="44.615" y="139.70896" style="stroke: #000000; stroke-width: 0.8"/>
      </g>
     </g>
     <g id="text_6">
      <!-- 15 -->
      <g transform="translate(24.89 143.508178) scale(0.1 -0.1)">
       <use xlink:href="#DejaVuSans-31"/>
       <use xlink:href="#DejaVuSans-35" transform="translate(63.623047 0)"/>
      </g>
     </g>
    </g>
    <g id="ytick_5">
     <g id="line2d_7">
      <g>
       <use xlink:href="#md9c6a503fc" x="44.615" y="60.118009" style="stroke: #000000; stroke-width: 0.8"/>
      </g>
     </g>
     <g id="text_7">
      <!-- 20 -->
      <g transform="translate(24.89 63.917228) scale(0.1 -0.1)">
       <defs>
        <path id="DejaVuSans-32" d="M 1228 531 
L 3431 531 
L 3431 0 
L 469 0 
L 469 531 
Q 828 903 1448 1529 
Q 2069 2156 2228 2338 
Q 2531 2678 2651 2914 
Q 2772 3150 2772 3378 
Q 2772 3750 2511 3984 
Q 2250 4219 1831 4219 
Q 1534 4219 1204 4116 
Q 875 4013 500 3803 
L 500 4441 
Q 881 4594 1212 4672 
Q 1544 4750 1819 4750 
Q 2544 4750 2975 4387 
Q 3406 4025 3406 3419 
Q 3406 3131 3298 2873 
Q 3191 2616 2906 2266 
Q 2828 2175 2409 1742 
Q 1991 1309 1228 531 
z
" transform="scale(0.015625)"/>
       </defs>
       <use xlink:href="#DejaVuSans-32"/>
       <use xlink:href="#DejaVuSans-30" transform="translate(63.623047 0)"/>
      </g>
     </g>
    </g>
    <g id="text_8">
     <!-- Pairwise Distance -->
     <g transform="translate(18.810313 259.049375) rotate(-90) scale(0.1 -0.1)">
      <defs>
       <path id="DejaVuSans-50" d="M 1259 4147 
L 1259 2394 
L 2053 2394 
Q 2494 2394 2734 2622 
Q 2975 2850 2975 3272 
Q 2975 3691 2734 3919 
Q 2494 4147 2053 4147 
L 1259 4147 
z
M 628 4666 
L 2053 4666 
Q 2838 4666 3239 4311 
Q 3641 3956 3641 3272 
Q 3641 2581 3239 2228 
Q 2838 1875 2053 1875 
L 1259 1875 
L 1259 0 
L 628 0 
L 628 4666 
z
" transform="scale(0.015625)"/>
       <path id="DejaVuSans-77" d="M 269 3500 
L 844 3500 
L 1563 769 
L 2278 3500 
L 2956 3500 
L 3675 769 
L 4391 3500 
L 4966 3500 
L 4050 0 
L 3372 0 
L 2619 2869 
L 1863 0 
L 1184 0 
L 269 3500 
z
" transform="scale(0.015625)"/>
       <path id="DejaVuSans-73" d="M 2834 3397 
L 2834 2853 
Q 2591 2978 2328 3040 
Q 2066 3103 1784 3103 
Q 1356 3103 1142 2972 
Q 928 2841 928 2578 
Q 928 2378 1081 2264 
Q 1234 2150 1697 2047 
L 1894 2003 
Q 2506 1872 2764 1633 
Q 3022 1394 3022 966 
Q 3022 478 2636 193 
Q 2250 -91 1575 -91 
Q 1294 -91 989 -36 
Q 684 19 347 128 
L 347 722 
Q 666 556 975 473 
Q 1284 391 1588 391 
Q 1994 391 2212 530 
Q 2431 669 2431 922 
Q 2431 1156 2273 1281 
Q 2116 1406 1581 1522 
L 1381 1569 
Q 847 1681 609 1914 
Q 372 2147 372 2553 
Q 372 3047 722 3315 
Q 1072 3584 1716 3584 
Q 2034 3584 2315 3537 
Q 2597 3491 2834 3397 
z
" transform="scale(0.015625)"/>
       <path id="DejaVuSans-20" transform="scale(0.015625)"/>
       <path id="DejaVuSans-44" d="M 1259 4147 
L 1259 519 
L 2022 519 
Q 2988 519 3436 956 
Q 3884 1394 3884 2338 
Q 3884 3275 3436 3711 
Q 2988 4147 2022 4147 
L 1259 4147 
z
M 628 4666 
L 1925 4666 
Q 3281 4666 3915 4102 
Q 4550 3538 4550 2338 
Q 4550 1131 3912 565 
Q 3275 0 1925 0 
L 628 0 
L 628 4666 
z
" transform="scale(0.015625)"/>
       <path id="DejaVuSans-63" d="M 3122 3366 
L 3122 2828 
Q 2878 2963 2633 3030 
Q 2388 3097 2138 3097 
Q 1578 3097 1268 2742 
Q 959 2388 959 1747 
Q 959 1106 1268 751 
Q 1578 397 2138 397 
Q 2388 397 2633 464 
Q 2878 531 3122 666 
L 3122 134 
Q 2881 22 2623 -34 
Q 2366 -91 2075 -91 
Q 1284 -91 818 406 
Q 353 903 353 1747 
Q 353 2603 823 3093 
Q 1294 3584 2113 3584 
Q 2378 3584 2631 3529 
Q 2884 3475 3122 3366 
z
" transform="scale(0.015625)"/>
      </defs>
      <use xlink:href="#DejaVuSans-50"/>
      <use xlink:href="#DejaVuSans-61" transform="translate(55.802734 0)"/>
      <use xlink:href="#DejaVuSans-69" transform="translate(117.082031 0)"/>
      <use xlink:href="#DejaVuSans-72" transform="translate(144.865234 0)"/>
      <use xlink:href="#DejaVuSans-77" transform="translate(185.978516 0)"/>
      <use xlink:href="#DejaVuSans-69" transform="translate(267.765625 0)"/>
      <use xlink:href="#DejaVuSans-73" transform="translate(295.548828 0)"/>
      <use xlink:href="#DejaVuSans-65" transform="translate(347.648438 0)"/>
      <use xlink:href="#DejaVuSans-20" transform="translate(409.171875 0)"/>
      <use xlink:href="#DejaVuSans-44" transform="translate(440.958984 0)"/>
      <use xlink:href="#DejaVuSans-69" transform="translate(517.960938 0)"/>
      <use xlink:href="#DejaVuSans-73" transform="translate(545.744141 0)"/>
      <use xlink:href="#DejaVuSans-74" transform="translate(597.84375 0)"/>
      <use xlink:href="#DejaVuSans-61" transform="translate(637.052734 0)"/>
      <use xlink:href="#DejaVuSans-6e" transform="translate(698.332031 0)"/>
      <use xlink:href="#DejaVuSans-63" transform="translate(761.710938 0)"/>
      <use xlink:href="#DejaVuSans-65" transform="translate(816.691406 0)"/>
     </g>
    </g>
   </g>
   <g id="line2d_8">
    <path d="M 138.76125 378.481796 
L 138.76125 101.906653 
" clip-path="url(#p9469bc0be1)" style="fill: none; stroke: #3f3f3f; stroke-width: 1.875; stroke-linecap: square"/>
   </g>
   <g id="line2d_9">
    <path d="M 138.76125 342.388971 
L 138.76125 246.196026 
" clip-path="url(#p9469bc0be1)" style="fill: none; stroke: #3f3f3f; stroke-width: 5.625; stroke-linecap: square"/>
   </g>
   <g id="line2d_10">
    <path d="M 138.76125 301.347785 
" clip-path="url(#p9469bc0be1)" style="fill: none; stroke: #3f3f3f; stroke-width: 1.5; stroke-linecap: square"/>
    <defs>
     <path id="m2b04f4fc1b" d="M 2.34375 0 
L -2.34375 -0 
" style="stroke: #ffffff; stroke-width: 1.125"/>
    </defs>
    <g clip-path="url(#p9469bc0be1)">
     <use xlink:href="#m2b04f4fc1b" x="138.76125" y="301.347785" style="fill: #ffffff; stroke: #ffffff; stroke-width: 1.125"/>
    </g>
   </g>
   <g id="line2d_11">
    <path d="M 327.05375 378.481705 
L 327.05375 99.095031 
" clip-path="url(#p9469bc0be1)" style="fill: none; stroke: #3f3f3f; stroke-width: 1.875; stroke-linecap: square"/>
   </g>
   <g id="line2d_12">
    <path d="M 327.05375 342.361175 
L 327.05375 245.053145 
" clip-path="url(#p9469bc0be1)" style="fill: none; stroke: #3f3f3f; stroke-width: 5.625; stroke-linecap: square"/>
   </g>
   <g id="line2d_13">
    <path d="M 327.05375 300.921775 
" clip-path="url(#p9469bc0be1)" style="fill: none; stroke: #3f3f3f; stroke-width: 1.5; stroke-linecap: square"/>
    <g clip-path="url(#p9469bc0be1)">
     <use xlink:href="#m2b04f4fc1b" x="327.05375" y="300.921775" style="fill: #ffffff; stroke: #ffffff; stroke-width: 1.125"/>
    </g>
   </g>
   <g id="patch_3">
    <path d="M 44.615 404.12 
L 44.615 26.16 
" style="fill: none; stroke: #000000; stroke-width: 0.8; stroke-linejoin: miter; stroke-linecap: square"/>
   </g>
   <g id="patch_4">
    <path d="M 421.2 404.12 
L 421.2 26.16 
" style="fill: none; stroke: #000000; stroke-width: 0.8; stroke-linejoin: miter; stroke-linecap: square"/>
   </g>
   <g id="patch_5">
    <path d="M 44.615 404.12 
L 421.2 404.12 
" style="fill: none; stroke: #000000; stroke-width: 0.8; stroke-linejoin: miter; stroke-linecap: square"/>
   </g>
   <g id="patch_6">
    <path d="M 44.615 26.16 
L 421.2 26.16 
" style="fill: none; stroke: #000000; stroke-width: 0.8; stroke-linejoin: miter; stroke-linecap: square"/>
   </g>
   <g id="text_9">
    <!-- inv_eigenval - UMAP (1D) Distances -->
    <g transform="translate(125.767188 20.16) scale(0.12 -0.12)">
     <defs>
      <path id="DejaVuSans-76" d="M 191 3500 
L 800 3500 
L 1894 563 
L 2988 3500 
L 3597 3500 
L 2284 0 
L 1503 0 
L 191 3500 
z
" transform="scale(0.015625)"/>
      <path id="DejaVuSans-5f" d="M 3263 -1063 
L 3263 -1509 
L -63 -1509 
L -63 -1063 
L 3263 -1063 
z
" transform="scale(0.015625)"/>
      <path id="DejaVuSans-67" d="M 2906 1791 
Q 2906 2416 2648 2759 
Q 2391 3103 1925 3103 
Q 1463 3103 1205 2759 
Q 947 2416 947 1791 
Q 947 1169 1205 825 
Q 1463 481 1925 481 
Q 2391 481 2648 825 
Q 2906 1169 2906 1791 
z
M 3481 434 
Q 3481 -459 3084 -895 
Q 2688 -1331 1869 -1331 
Q 1566 -1331 1297 -1286 
Q 1028 -1241 775 -1147 
L 775 -588 
Q 1028 -725 1275 -790 
Q 1522 -856 1778 -856 
Q 2344 -856 2625 -561 
Q 2906 -266 2906 331 
L 2906 616 
Q 2728 306 2450 153 
Q 2172 0 1784 0 
Q 1141 0 747 490 
Q 353 981 353 1791 
Q 353 2603 747 3093 
Q 1141 3584 1784 3584 
Q 2172 3584 2450 3431 
Q 2728 3278 2906 2969 
L 2906 3500 
L 3481 3500 
L 3481 434 
z
" transform="scale(0.015625)"/>
      <path id="DejaVuSans-6c" d="M 603 4863 
L 1178 4863 
L 1178 0 
L 603 0 
L 603 4863 
z
" transform="scale(0.015625)"/>
      <path id="DejaVuSans-2d" d="M 313 2009 
L 1997 2009 
L 1997 1497 
L 313 1497 
L 313 2009 
z
" transform="scale(0.015625)"/>
      <path id="DejaVuSans-55" d="M 556 4666 
L 1191 4666 
L 1191 1831 
Q 1191 1081 1462 751 
Q 1734 422 2344 422 
Q 2950 422 3222 751 
Q 3494 1081 3494 1831 
L 3494 4666 
L 4128 4666 
L 4128 1753 
Q 4128 841 3676 375 
Q 3225 -91 2344 -91 
Q 1459 -91 1007 375 
Q 556 841 556 1753 
L 556 4666 
z
" transform="scale(0.015625)"/>
      <path id="DejaVuSans-4d" d="M 628 4666 
L 1569 4666 
L 2759 1491 
L 3956 4666 
L 4897 4666 
L 4897 0 
L 4281 0 
L 4281 4097 
L 3078 897 
L 2444 897 
L 1241 4097 
L 1241 0 
L 628 0 
L 628 4666 
z
" transform="scale(0.015625)"/>
      <path id="DejaVuSans-41" d="M 2188 4044 
L 1331 1722 
L 3047 1722 
L 2188 4044 
z
M 1831 4666 
L 2547 4666 
L 4325 0 
L 3669 0 
L 3244 1197 
L 1141 1197 
L 716 0 
L 50 0 
L 1831 4666 
z
" transform="scale(0.015625)"/>
      <path id="DejaVuSans-28" d="M 1984 4856 
Q 1566 4138 1362 3434 
Q 1159 2731 1159 2009 
Q 1159 1288 1364 580 
Q 1569 -128 1984 -844 
L 1484 -844 
Q 1016 -109 783 600 
Q 550 1309 550 2009 
Q 550 2706 781 3412 
Q 1013 4119 1484 4856 
L 1984 4856 
z
" transform="scale(0.015625)"/>
      <path id="DejaVuSans-29" d="M 513 4856 
L 1013 4856 
Q 1481 4119 1714 3412 
Q 1947 2706 1947 2009 
Q 1947 1309 1714 600 
Q 1481 -109 1013 -844 
L 513 -844 
Q 928 -128 1133 580 
Q 1338 1288 1338 2009 
Q 1338 2731 1133 3434 
Q 928 4138 513 4856 
z
" transform="scale(0.015625)"/>
     </defs>
     <use xlink:href="#DejaVuSans-69"/>
     <use xlink:href="#DejaVuSans-6e" transform="translate(27.783203 0)"/>
     <use xlink:href="#DejaVuSans-76" transform="translate(91.162109 0)"/>
     <use xlink:href="#DejaVuSans-5f" transform="translate(150.341797 0)"/>
     <use xlink:href="#DejaVuSans-65" transform="translate(200.341797 0)"/>
     <use xlink:href="#DejaVuSans-69" transform="translate(261.865234 0)"/>
     <use xlink:href="#DejaVuSans-67" transform="translate(289.648438 0)"/>
     <use xlink:href="#DejaVuSans-65" transform="translate(353.125 0)"/>
     <use xlink:href="#DejaVuSans-6e" transform="translate(414.648438 0)"/>
     <use xlink:href="#DejaVuSans-76" transform="translate(478.027344 0)"/>
     <use xlink:href="#DejaVuSans-61" transform="translate(537.207031 0)"/>
     <use xlink:href="#DejaVuSans-6c" transform="translate(598.486328 0)"/>
     <use xlink:href="#DejaVuSans-20" transform="translate(626.269531 0)"/>
     <use xlink:href="#DejaVuSans-2d" transform="translate(658.056641 0)"/>
     <use xlink:href="#DejaVuSans-20" transform="translate(694.140625 0)"/>
     <use xlink:href="#DejaVuSans-55" transform="translate(725.927734 0)"/>
     <use xlink:href="#DejaVuSans-4d" transform="translate(799.121094 0)"/>
     <use xlink:href="#DejaVuSans-41" transform="translate(885.400391 0)"/>
     <use xlink:href="#DejaVuSans-50" transform="translate(953.808594 0)"/>
     <use xlink:href="#DejaVuSans-20" transform="translate(1014.111328 0)"/>
     <use xlink:href="#DejaVuSans-28" transform="translate(1045.898438 0)"/>
     <use xlink:href="#DejaVuSans-31" transform="translate(1084.912109 0)"/>
     <use xlink:href="#DejaVuSans-44" transform="translate(1148.535156 0)"/>
     <use xlink:href="#DejaVuSans-29" transform="translate(1225.537109 0)"/>
     <use xlink:href="#DejaVuSans-20" transform="translate(1264.550781 0)"/>
     <use xlink:href="#DejaVuSans-44" transform="translate(1296.337891 0)"/>
     <use xlink:href="#DejaVuSans-69" transform="translate(1373.339844 0)"/>
     <use xlink:href="#DejaVuSans-73" transform="translate(1401.123047 0)"/>
     <use xlink:href="#DejaVuSans-74" transform="translate(1453.222656 0)"/>
     <use xlink:href="#DejaVuSans-61" transform="translate(1492.431641 0)"/>
     <use xlink:href="#DejaVuSans-6e" transform="translate(1553.710938 0)"/>
     <use xlink:href="#DejaVuSans-63" transform="translate(1617.089844 0)"/>
     <use xlink:href="#DejaVuSans-65" transform="translate(1672.070312 0)"/>
     <use xlink:href="#DejaVuSans-73" transform="translate(1733.59375 0)"/>
    </g>
   </g>
  </g>
 </g>
 <defs>
  <clipPath id="p9469bc0be1">
   <rect x="44.615" y="26.16" width="376.585" height="377.96"/>
  </clipPath>
 </defs>
</svg>
